<?xml version="1.0" encoding="UTF-8"?>
<svg version="1.1" xmlns="http://www.w3.org/2000/svg" width="900" height="900">
<path d="M0 0 C1.78005494 -0.00480972 1.78005494 -0.00480972 3.59607059 -0.0097166 C6.86383835 -0.0165446 10.13145701 -0.01454166 13.39922196 -0.00866088 C16.96434159 -0.00446462 20.52944101 -0.01190713 24.09455562 -0.01781338 C30.33441324 -0.02655274 36.57423804 -0.02789558 42.81410027 -0.02431011 C52.09335952 -0.01899233 61.37258712 -0.02510923 70.65184293 -0.03339304 C88.19068431 -0.04862039 105.72951124 -0.05033941 123.26835784 -0.04787002 C136.81386209 -0.04603617 150.35936161 -0.04779889 163.90486526 -0.05209446 C165.85209468 -0.05269686 167.7993241 -0.05329806 169.74655353 -0.05389806 C172.68097767 -0.05480533 175.61540182 -0.055714 178.54982597 -0.05663041 C205.82721879 -0.06505811 233.10460984 -0.06939691 260.38200378 -0.06522369 C261.9239538 -0.06498913 261.9239538 -0.06498913 263.49705433 -0.06474983 C268.70699307 -0.06394406 273.91693181 -0.06309829 279.12687054 -0.06223653 C280.16154872 -0.06206544 281.19622689 -0.06189435 282.26225895 -0.06171808 C284.35462878 -0.06137142 286.44699862 -0.06102289 288.53936845 -0.06067249 C321.09414651 -0.0553157 353.64889749 -0.06324526 386.2036705 -0.08170605 C422.794383 -0.10243128 459.38507872 -0.11314776 495.97579741 -0.10913056 C499.87886031 -0.10873523 503.78192321 -0.10837368 507.68498611 -0.10803318 C509.1264939 -0.10789708 509.1264939 -0.10789708 510.59712305 -0.10775824 C525.09173458 -0.10659324 539.58632914 -0.1132331 554.08093643 -0.1238451 C570.56965316 -0.13590487 587.05833256 -0.1374471 603.54704985 -0.12505493 C612.76842518 -0.11843435 621.9897112 -0.12003889 631.21107936 -0.13364345 C637.37902932 -0.14190713 643.54691261 -0.13916555 649.71485719 -0.12766818 C653.22358426 -0.12143073 656.73213748 -0.11976137 660.24085429 -0.13153151 C688.49501762 -0.20716456 718.05872877 2.47009588 739.48809433 23.05916309 C740.86665507 24.43748846 742.21530483 25.84553218 743.56255722 27.25447559 C744.30119003 28.02275684 745.03982285 28.79103809 745.80083847 29.58260059 C760.87280991 46.7909874 765.90755233 71.471823 765.81703281 93.69191837 C765.82184253 95.47197331 765.82184253 95.47197331 765.82674941 97.28798896 C765.83357742 100.55575672 765.83157448 103.82337539 765.82569369 107.09114033 C765.82149744 110.65625997 765.82893994 114.22135939 765.8348462 117.78647399 C765.84358555 124.02633162 765.84492839 130.26615642 765.84134293 136.50601864 C765.83602514 145.78527789 765.84214205 155.06450549 765.85042586 164.34376131 C765.8656532 181.88260269 765.86737222 199.42142961 765.86490283 216.96027622 C765.86306899 230.50578046 765.8648317 244.05127998 765.86912727 257.59678364 C765.86972968 259.54401306 765.87033088 261.49124248 765.87093088 263.4384719 C765.87183815 266.37289605 765.87274681 269.30732019 765.87366323 272.24174434 C765.88209092 299.51913716 765.88642973 326.79652821 765.88225651 354.07392216 C765.88210013 355.10188884 765.88194376 356.12985552 765.88178264 357.1889727 C765.88097688 362.39891145 765.88013111 367.60885018 765.87926934 372.81878892 C765.87909825 373.85346709 765.87892716 374.88814527 765.87875089 375.95417732 C765.87840424 378.04654716 765.87805571 380.13891699 765.8777053 382.23128682 C765.87234852 414.78606489 765.88027807 447.34081586 765.89873886 479.89558887 C765.91946409 516.48630137 765.93018057 553.07699709 765.92616338 589.66771579 C765.92576804 593.57077869 765.92540649 597.47384158 765.92506599 601.37690449 C765.92497526 602.33790968 765.92488453 603.29891487 765.92479105 604.28904142 C765.92362606 618.78365295 765.93026592 633.27824751 765.94087791 647.7728548 C765.95293769 664.26157153 765.95447991 680.75025093 765.94208775 697.23896822 C765.93546717 706.46034355 765.93707171 715.68162958 765.95067626 724.90299773 C765.95893994 731.0709477 765.95619836 737.23883098 765.94470099 743.40677556 C765.93846354 746.91550263 765.93679418 750.42405585 765.94856433 753.93277267 C766.02419737 782.18693599 763.34693694 811.75064715 742.75786972 833.1800127 C741.37954435 834.55857344 739.97150063 835.90722321 738.56255722 837.25447559 C737.79427597 837.99310841 737.02599472 838.73174122 736.23443222 839.49275684 C719.02604541 854.56472828 694.34520981 859.59947071 672.12511444 859.50895119 C670.93841115 859.51215767 669.75170785 859.51536414 668.52904385 859.51866779 C665.26127609 859.52549579 661.99365743 859.52349285 658.72589248 859.51761206 C655.16077285 859.51341581 651.59567343 859.52085832 648.03055882 859.52676457 C641.7907012 859.53550393 635.5508764 859.53684676 629.31101418 859.5332613 C620.03175492 859.52794351 610.75252732 859.53406042 601.47327151 859.54234423 C583.93443013 859.55757157 566.3956032 859.55929059 548.8567566 859.5568212 C535.31125235 859.55498736 521.76575283 859.55675008 508.22024918 859.56104565 C506.27301976 859.56164805 504.32579034 859.56224925 502.37856092 859.56284925 C499.44413677 859.56375652 496.50971262 859.56466519 493.57528848 859.5655816 C466.29789565 859.57400929 439.0205046 859.5783481 411.74311066 859.57417488 C410.71514398 859.5740185 409.6871773 859.57386213 408.62806011 859.57370101 C403.41812137 859.57289525 398.20818263 859.57204948 392.9982439 859.57118771 C391.96356572 859.57101662 390.92888755 859.57084554 389.86285549 859.57066926 C387.77048566 859.57032261 385.67811583 859.56997408 383.58574599 859.56962368 C351.03096793 859.56426689 318.47621695 859.57219645 285.92144394 859.59065723 C249.33073144 859.61138246 212.74003572 859.62209894 176.14931703 859.61808175 C172.24625413 859.61768641 168.34319123 859.61732486 164.44012833 859.61698437 C162.99862054 859.61684827 162.99862054 859.61684827 161.52799139 859.61670942 C147.03337986 859.61554443 132.5387853 859.62218429 118.04417801 859.63279629 C101.55546128 859.64485606 85.06678188 859.64639828 68.57806459 859.63400612 C59.35668926 859.62738554 50.13540324 859.62899008 40.91403508 859.64259463 C34.74608512 859.65085832 28.57820183 859.64811673 22.41025725 859.63661937 C18.90153018 859.63038191 15.39297696 859.62871256 11.88426015 859.6404827 C-16.36990318 859.71611575 -45.93361433 857.03885531 -67.36297989 836.44978809 C-68.74154063 835.07146272 -70.09019039 833.66341901 -71.43744278 832.25447559 C-72.17607559 831.48619434 -72.9147084 830.71791309 -73.67572403 829.92635059 C-88.74769547 812.71796378 -93.78243789 788.03712818 -93.69191837 765.81703281 C-93.69512485 764.63032952 -93.69833133 763.44362623 -93.70163497 762.22096223 C-93.70846298 758.95319447 -93.70646004 755.6855758 -93.70057925 752.41781085 C-93.696383 748.85269122 -93.7038255 745.2875918 -93.70973176 741.7224772 C-93.71847111 735.48261957 -93.71981395 729.24279477 -93.71622849 723.00293255 C-93.7109107 713.72367329 -93.71702761 704.44444569 -93.72531142 695.16518988 C-93.74053876 677.6263485 -93.74225778 660.08752158 -93.73978839 642.54867497 C-93.73795454 629.00317072 -93.73971726 615.4576712 -93.74401283 601.91216755 C-93.74461524 599.96493813 -93.74521644 598.01770871 -93.74581644 596.07047929 C-93.74672371 593.13605514 -93.74763237 590.20163099 -93.74854879 587.26720685 C-93.75697648 559.98981402 -93.76131529 532.71242298 -93.75714207 505.43502903 C-93.75698569 504.40706235 -93.75682931 503.37909567 -93.7566682 502.31997848 C-93.75586244 497.11003974 -93.75501667 491.90010101 -93.7541549 486.69016227 C-93.75398381 485.6554841 -93.75381272 484.62080592 -93.75363645 483.55477386 C-93.75328979 481.46240403 -93.75294126 479.3700342 -93.75259086 477.27766437 C-93.74723408 444.7228863 -93.75516363 412.16813533 -93.77362442 379.61336231 C-93.79434965 343.02264981 -93.80506613 306.4319541 -93.80104893 269.8412354 C-93.8006536 265.9381725 -93.80029205 262.0351096 -93.79995155 258.1320467 C-93.79986082 257.17104151 -93.79977009 256.21003632 -93.79967661 255.21990976 C-93.79851162 240.72529823 -93.80515147 226.23070367 -93.81576347 211.73609638 C-93.82782325 195.24737965 -93.82936547 178.75870026 -93.81697331 162.26998296 C-93.81035273 153.04860763 -93.81195727 143.82732161 -93.82556182 134.60595345 C-93.8338255 128.43800349 -93.83108392 122.2701202 -93.81958655 116.10217562 C-93.8133491 112.59344856 -93.81167974 109.08489533 -93.82344989 105.57617852 C-93.89908293 77.3220152 -91.2218225 47.75830404 -70.63275528 26.32893848 C-69.25442991 24.95037775 -67.84638619 23.60172798 -66.43744278 22.25447559 C-65.2850209 21.14652637 -65.2850209 21.14652637 -64.10931778 20.01619434 C-46.90093097 4.9442229 -22.22009537 -0.09051952 0 0 Z " fill="#804630" transform="translate(114.43744277954102,20.745524406433105)"/>
<path d="M0 0 C1.78005494 -0.00480972 1.78005494 -0.00480972 3.59607059 -0.0097166 C6.86383835 -0.0165446 10.13145701 -0.01454166 13.39922196 -0.00866088 C16.96434159 -0.00446462 20.52944101 -0.01190713 24.09455562 -0.01781338 C30.33441324 -0.02655274 36.57423804 -0.02789558 42.81410027 -0.02431011 C52.09335952 -0.01899233 61.37258712 -0.02510923 70.65184293 -0.03339304 C88.19068431 -0.04862039 105.72951124 -0.05033941 123.26835784 -0.04787002 C136.81386209 -0.04603617 150.35936161 -0.04779889 163.90486526 -0.05209446 C165.85209468 -0.05269686 167.7993241 -0.05329806 169.74655353 -0.05389806 C172.68097767 -0.05480533 175.61540182 -0.055714 178.54982597 -0.05663041 C205.82721879 -0.06505811 233.10460984 -0.06939691 260.38200378 -0.06522369 C261.9239538 -0.06498913 261.9239538 -0.06498913 263.49705433 -0.06474983 C268.70699307 -0.06394406 273.91693181 -0.06309829 279.12687054 -0.06223653 C280.16154872 -0.06206544 281.19622689 -0.06189435 282.26225895 -0.06171808 C284.35462878 -0.06137142 286.44699862 -0.06102289 288.53936845 -0.06067249 C321.09414651 -0.0553157 353.64889749 -0.06324526 386.2036705 -0.08170605 C422.794383 -0.10243128 459.38507872 -0.11314776 495.97579741 -0.10913056 C499.87886031 -0.10873523 503.78192321 -0.10837368 507.68498611 -0.10803318 C509.1264939 -0.10789708 509.1264939 -0.10789708 510.59712305 -0.10775824 C525.09173458 -0.10659324 539.58632914 -0.1132331 554.08093643 -0.1238451 C570.56965316 -0.13590487 587.05833256 -0.1374471 603.54704985 -0.12505493 C612.76842518 -0.11843435 621.9897112 -0.12003889 631.21107936 -0.13364345 C637.37902932 -0.14190713 643.54691261 -0.13916555 649.71485719 -0.12766818 C653.22358426 -0.12143073 656.73213748 -0.11976137 660.24085429 -0.13153151 C688.49501762 -0.20716456 718.05872877 2.47009588 739.48809433 23.05916309 C740.86665507 24.43748846 742.21530483 25.84553218 743.56255722 27.25447559 C744.30119003 28.02275684 745.03982285 28.79103809 745.80083847 29.58260059 C760.87280991 46.7909874 765.90755233 71.471823 765.81703281 93.69191837 C765.82184253 95.47197331 765.82184253 95.47197331 765.82674941 97.28798896 C765.83357742 100.55575672 765.83157448 103.82337539 765.82569369 107.09114033 C765.82149744 110.65625997 765.82893994 114.22135939 765.8348462 117.78647399 C765.84358555 124.02633162 765.84492839 130.26615642 765.84134293 136.50601864 C765.83602514 145.78527789 765.84214205 155.06450549 765.85042586 164.34376131 C765.8656532 181.88260269 765.86737222 199.42142961 765.86490283 216.96027622 C765.86306899 230.50578046 765.8648317 244.05127998 765.86912727 257.59678364 C765.86972968 259.54401306 765.87033088 261.49124248 765.87093088 263.4384719 C765.87183815 266.37289605 765.87274681 269.30732019 765.87366323 272.24174434 C765.88209092 299.51913716 765.88642973 326.79652821 765.88225651 354.07392216 C765.88210013 355.10188884 765.88194376 356.12985552 765.88178264 357.1889727 C765.88097688 362.39891145 765.88013111 367.60885018 765.87926934 372.81878892 C765.87909825 373.85346709 765.87892716 374.88814527 765.87875089 375.95417732 C765.87840424 378.04654716 765.87805571 380.13891699 765.8777053 382.23128682 C765.87234852 414.78606489 765.88027807 447.34081586 765.89873886 479.89558887 C765.91946409 516.48630137 765.93018057 553.07699709 765.92616338 589.66771579 C765.92576804 593.57077869 765.92540649 597.47384158 765.92506599 601.37690449 C765.92497526 602.33790968 765.92488453 603.29891487 765.92479105 604.28904142 C765.92362606 618.78365295 765.93026592 633.27824751 765.94087791 647.7728548 C765.95293769 664.26157153 765.95447991 680.75025093 765.94208775 697.23896822 C765.93546717 706.46034355 765.93707171 715.68162958 765.95067626 724.90299773 C765.95893994 731.0709477 765.95619836 737.23883098 765.94470099 743.40677556 C765.93846354 746.91550263 765.93679418 750.42405585 765.94856433 753.93277267 C766.02419737 782.18693599 763.34693694 811.75064715 742.75786972 833.1800127 C741.37954435 834.55857344 739.97150063 835.90722321 738.56255722 837.25447559 C737.79427597 837.99310841 737.02599472 838.73174122 736.23443222 839.49275684 C719.02604541 854.56472828 694.34520981 859.59947071 672.12511444 859.50895119 C670.93841115 859.51215767 669.75170785 859.51536414 668.52904385 859.51866779 C665.26127609 859.52549579 661.99365743 859.52349285 658.72589248 859.51761206 C655.16077285 859.51341581 651.59567343 859.52085832 648.03055882 859.52676457 C641.7907012 859.53550393 635.5508764 859.53684676 629.31101418 859.5332613 C620.03175492 859.52794351 610.75252732 859.53406042 601.47327151 859.54234423 C583.93443013 859.55757157 566.3956032 859.55929059 548.8567566 859.5568212 C535.31125235 859.55498736 521.76575283 859.55675008 508.22024918 859.56104565 C506.27301976 859.56164805 504.32579034 859.56224925 502.37856092 859.56284925 C499.44413677 859.56375652 496.50971262 859.56466519 493.57528848 859.5655816 C466.29789565 859.57400929 439.0205046 859.5783481 411.74311066 859.57417488 C410.71514398 859.5740185 409.6871773 859.57386213 408.62806011 859.57370101 C403.41812137 859.57289525 398.20818263 859.57204948 392.9982439 859.57118771 C391.96356572 859.57101662 390.92888755 859.57084554 389.86285549 859.57066926 C387.77048566 859.57032261 385.67811583 859.56997408 383.58574599 859.56962368 C351.03096793 859.56426689 318.47621695 859.57219645 285.92144394 859.59065723 C249.33073144 859.61138246 212.74003572 859.62209894 176.14931703 859.61808175 C172.24625413 859.61768641 168.34319123 859.61732486 164.44012833 859.61698437 C162.99862054 859.61684827 162.99862054 859.61684827 161.52799139 859.61670942 C147.03337986 859.61554443 132.5387853 859.62218429 118.04417801 859.63279629 C101.55546128 859.64485606 85.06678188 859.64639828 68.57806459 859.63400612 C59.35668926 859.62738554 50.13540324 859.62899008 40.91403508 859.64259463 C34.74608512 859.65085832 28.57820183 859.64811673 22.41025725 859.63661937 C18.90153018 859.63038191 15.39297696 859.62871256 11.88426015 859.6404827 C-16.36990318 859.71611575 -45.93361433 857.03885531 -67.36297989 836.44978809 C-68.74154063 835.07146272 -70.09019039 833.66341901 -71.43744278 832.25447559 C-72.17607559 831.48619434 -72.9147084 830.71791309 -73.67572403 829.92635059 C-88.74769547 812.71796378 -93.78243789 788.03712818 -93.69191837 765.81703281 C-93.69512485 764.63032952 -93.69833133 763.44362623 -93.70163497 762.22096223 C-93.70846298 758.95319447 -93.70646004 755.6855758 -93.70057925 752.41781085 C-93.696383 748.85269122 -93.7038255 745.2875918 -93.70973176 741.7224772 C-93.71847111 735.48261957 -93.71981395 729.24279477 -93.71622849 723.00293255 C-93.7109107 713.72367329 -93.71702761 704.44444569 -93.72531142 695.16518988 C-93.74053876 677.6263485 -93.74225778 660.08752158 -93.73978839 642.54867497 C-93.73795454 629.00317072 -93.73971726 615.4576712 -93.74401283 601.91216755 C-93.74461524 599.96493813 -93.74521644 598.01770871 -93.74581644 596.07047929 C-93.74672371 593.13605514 -93.74763237 590.20163099 -93.74854879 587.26720685 C-93.75697648 559.98981402 -93.76131529 532.71242298 -93.75714207 505.43502903 C-93.75698569 504.40706235 -93.75682931 503.37909567 -93.7566682 502.31997848 C-93.75586244 497.11003974 -93.75501667 491.90010101 -93.7541549 486.69016227 C-93.75398381 485.6554841 -93.75381272 484.62080592 -93.75363645 483.55477386 C-93.75328979 481.46240403 -93.75294126 479.3700342 -93.75259086 477.27766437 C-93.74723408 444.7228863 -93.75516363 412.16813533 -93.77362442 379.61336231 C-93.79434965 343.02264981 -93.80506613 306.4319541 -93.80104893 269.8412354 C-93.8006536 265.9381725 -93.80029205 262.0351096 -93.79995155 258.1320467 C-93.79986082 257.17104151 -93.79977009 256.21003632 -93.79967661 255.21990976 C-93.79851162 240.72529823 -93.80515147 226.23070367 -93.81576347 211.73609638 C-93.82782325 195.24737965 -93.82936547 178.75870026 -93.81697331 162.26998296 C-93.81035273 153.04860763 -93.81195727 143.82732161 -93.82556182 134.60595345 C-93.8338255 128.43800349 -93.83108392 122.2701202 -93.81958655 116.10217562 C-93.8133491 112.59344856 -93.81167974 109.08489533 -93.82344989 105.57617852 C-93.89908293 77.3220152 -91.2218225 47.75830404 -70.63275528 26.32893848 C-69.25442991 24.95037775 -67.84638619 23.60172798 -66.43744278 22.25447559 C-65.2850209 21.14652637 -65.2850209 21.14652637 -64.10931778 20.01619434 C-46.90093097 4.9442229 -22.22009537 -0.09051952 0 0 Z M493.56255722 99.44197559 C487.10324448 107.92584905 483.58808635 117.68453334 482.56255722 128.25447559 C481.81683456 128.23352833 481.07111191 128.21258106 480.3027916 128.19099903 C476.88951997 128.10730926 473.47646498 128.05564766 470.06255722 128.00447559 C468.30298691 127.95420216 468.30298691 127.95420216 466.50786972 127.90291309 C459.67887262 127.82618279 454.15416508 128.02978621 448.56255722 132.25447559 C446.6499901 134.13525432 446.6499901 134.13525432 445.56255722 136.25447559 C445.17068222 136.91447559 444.77880722 137.57447559 444.37505722 138.25447559 C443.31163919 140.51233006 443.31163919 140.51233006 443.56255722 144.25447559 C442.44921005 144.23352833 441.33586288 144.21258106 440.18877792 144.19099903 C435.99734347 144.11775726 431.80596364 144.07237485 427.61407089 144.03474903 C425.81123927 144.01482291 424.00847064 143.98767176 422.20586777 143.95271778 C404.19591816 143.61262431 388.8139634 146.80144991 374.70318222 158.65681934 C366.62240826 166.79881128 359.92982312 179.01406546 359.46490097 190.71150684 C359.47650253 191.48881153 359.4881041 192.26611622 359.50005722 193.06697559 C359.51359238 194.25226856 359.51359238 194.25226856 359.52740097 195.46150684 C359.53900253 196.05318653 359.5506041 196.64486622 359.56255722 197.25447559 C358.90255722 197.25447559 358.24255722 197.25447559 357.56255722 197.25447559 C357.31505722 196.71822559 357.06755722 196.18197559 356.81255722 195.62947559 C346.44661523 175.93418581 324.88107081 164.2853543 304.31255722 157.81697559 C302.40439914 157.26578485 300.48812545 156.74136928 298.56255722 156.25447559 C297.89100759 156.07825074 297.21945795 155.90202589 296.52755833 155.72046089 C292.14908949 155.03233228 287.81392334 155.10646053 283.38816452 155.10730457 C282.3538756 155.10362788 281.31958667 155.0999512 280.25395566 155.09616309 C276.78284322 155.08513672 273.31176072 155.08128411 269.84063339 155.07747364 C267.35357188 155.07120803 264.8665113 155.06456114 262.37945175 155.05756092 C254.91086982 155.03834059 247.44229584 155.02773197 239.97369644 155.01883313 C236.45072195 155.01444426 232.92774894 155.00907886 229.40477562 155.00384426 C217.68228054 154.98683175 205.95978637 154.97234097 194.23728085 154.96509552 C191.19702465 154.96318582 188.15676846 154.96126546 185.1165123 154.95930958 C184.36093001 154.95882584 183.60534771 154.9583421 182.82686899 154.9578437 C170.60651407 154.94955613 158.38625744 154.92424091 146.16594537 154.8917289 C133.59996998 154.85857189 121.03404437 154.84063883 108.46802503 154.83745128 C101.4207454 154.83529374 94.37360893 154.82665709 87.32637215 154.8009901 C80.68858887 154.7768695 74.05101552 154.77351138 67.4131813 154.78375149 C64.98654004 154.78424489 62.55988577 154.77798267 60.13328362 154.76419544 C46.9815928 154.69369744 35.13174267 155.12418093 22.56255722 159.25447559 C21.56213489 159.57961989 20.56171255 159.90476419 19.53097439 160.23976135 C17.08727685 161.0650688 14.70259785 161.97285162 12.31255722 162.94197559 C11.46830185 163.28301319 10.62404648 163.62405079 9.75420761 163.97542286 C2.39583587 167.08367018 -3.35731034 171.04924593 -9.43744278 176.25447559 C-10.44806778 177.04467091 -11.45869278 177.83486622 -12.49994278 178.64900684 C-17.09771141 182.25897362 -20.56061631 185.12372524 -23.43744278 190.25447559 C-24.36496586 191.40500969 -25.32233862 192.53233315 -26.31244278 193.62947559 C-32.7217035 201.03573243 -36.16895608 207.93875619 -39.43744278 217.25447559 C-39.82287247 218.33084278 -40.20830215 219.40720997 -40.60541153 220.51619434 C-43.38559336 228.51549007 -44.58967501 235.83398938 -44.56887054 244.32316399 C-44.57092318 245.11045194 -44.57297581 245.89773988 -44.57509065 246.70888504 C-44.58074175 249.34503383 -44.57930574 251.98113006 -44.57788467 254.61728382 C-44.58046939 256.52725549 -44.58348285 258.43722662 -44.58688807 260.347197 C-44.59494879 265.59468591 -44.59674713 270.84216114 -44.59748554 276.08965552 C-44.59933772 281.74970689 -44.60688589 287.40975119 -44.61362076 293.06979847 C-44.62719807 305.44596136 -44.63322788 317.82212101 -44.63763142 330.19829011 C-44.64039489 337.92750349 -44.64463244 345.65671562 -44.64913559 353.38592815 C-44.66132753 374.79004743 -44.67166232 396.19416507 -44.67501068 417.59828758 C-44.67523231 418.98182688 -44.6754541 420.36536618 -44.67567603 421.74890548 C-44.67589667 423.13573652 -44.67611715 424.52256757 -44.67633748 425.90939862 C-44.67678003 428.69149784 -44.67722714 431.47359707 -44.67767715 434.2556963 C-44.67778655 434.94549248 -44.67789594 435.63528865 -44.67800864 436.34598775 C-44.68163824 458.70620402 -44.69755538 481.06638785 -44.72086752 503.4265917 C-44.74548405 527.081277 -44.75917765 550.73593834 -44.7603786 574.39063781 C-44.76129488 587.27954442 -44.76703532 600.16840854 -44.78519821 613.05730343 C-44.80061087 624.03316184 -44.80571275 635.00896464 -44.79746011 645.98483182 C-44.79355776 651.58246832 -44.79446306 657.17999287 -44.80851746 662.77761555 C-44.82128095 667.90812329 -44.8200373 673.03843523 -44.80792674 678.1689428 C-44.805974 680.01890499 -44.80902853 681.86888117 -44.81777111 683.71882374 C-44.87836396 697.4141899 -43.94035638 710.17194926 -37.93744278 722.75447559 C-37.64224747 723.40416309 -37.34705215 724.05385059 -37.04291153 724.72322559 C-36.19477362 726.57642561 -35.31677493 728.415872 -34.43744278 730.25447559 C-33.97209122 731.26123341 -33.50673965 732.26799122 -33.02728653 733.30525684 C-22.65045084 752.55466948 -3.40613467 768.04797427 17.31768417 774.694417 C20.71160414 775.69113425 24.09618283 776.56020763 27.56255722 777.25447559 C28.76966402 777.50960139 28.76966402 777.50960139 30.00115681 777.76988125 C41.30149679 779.83488867 52.63980148 779.55079653 64.0877037 779.54500294 C66.45783829 779.55099567 68.82797093 779.55780292 71.19810104 779.56535816 C77.60770542 779.58295305 84.01725631 779.58771089 90.42688251 779.58898973 C94.44183386 779.58998259 98.45677602 779.59456846 102.47172356 779.59998417 C115.78583676 779.61757339 129.09991792 779.62682708 142.41404282 779.62532322 C143.48758797 779.62520335 143.48758797 779.62520335 144.58282089 779.62508106 C145.29940855 779.6249993 146.0159962 779.62491754 146.75429863 779.6248333 C158.34608072 779.62402182 169.93773244 779.64313064 181.52947687 779.6713578 C193.478755 779.70022199 205.42796984 779.71389059 217.37728363 779.71217024 C224.06693133 779.71151082 230.75641323 779.71720355 237.4460392 779.73852634 C243.74746784 779.75806468 250.04861052 779.75792766 256.35004997 779.74349308 C258.6451688 779.74142284 260.94030628 779.74599739 263.23539352 779.758214 C274.51521361 779.81430141 285.43587108 779.44133548 296.56269455 777.46239185 C297.44439487 777.30575829 298.32609519 777.14912472 299.2345137 776.98774469 C307.81863393 775.2844494 315.10207056 771.71742608 322.56255722 767.25447559 C323.57704941 766.67439747 324.5915416 766.09431934 325.63677597 765.49666309 C332.3244396 761.48593037 337.93766999 756.6276467 343.56255722 751.25447559 C344.17744003 750.71435841 344.79232285 750.17424122 345.42583847 749.61775684 C353.35134772 742.38459093 358.75838986 732.34083739 363.50005722 722.81697559 C364.04533066 721.72513966 364.5906041 720.63330372 365.15240097 719.50838184 C369.65793741 707.83725151 368.8667355 693.96820211 368.88140488 681.66096973 C368.8907265 679.84596795 368.9008984 678.03097037 368.91184616 676.21597767 C368.93890871 671.33686509 368.95422427 666.45778099 368.96727419 661.57861352 C368.98300981 656.46169987 369.0097662 651.3448435 369.03530502 646.22797108 C369.08190949 636.55993328 369.11874176 626.89188448 369.1519779 617.22379249 C369.19032958 606.20789914 369.23970515 595.19206358 369.28996205 584.17621911 C369.39300893 561.53568088 369.48235709 538.89510547 369.56255722 516.25447559 C370.03823135 516.87157902 370.51390549 517.48868244 371.00399399 518.12448597 C371.63062943 518.9344553 372.25726486 519.74442463 372.90288925 520.57893848 C373.83296295 521.78303112 373.83296295 521.78303112 374.78182602 523.01144886 C383.32881318 533.7773189 396.85938347 541.18069389 410.4689188 543.0468812 C414.56930806 543.45345466 418.67746923 543.39870388 422.79436874 543.39491749 C424.31879711 543.39937417 424.31879711 543.39937417 425.87402201 543.40392089 C429.27216194 543.41257751 432.67026652 543.41411358 436.0684166 543.41560841 C438.50813497 543.4202388 440.94785262 543.42526376 443.38756943 543.43065357 C450.01191692 543.44375988 456.6362571 543.45025653 463.2606144 543.45466423 C467.40311815 543.45743308 471.5456196 543.46167164 475.6881218 543.4661684 C487.17479684 543.47835769 498.66147003 543.48865695 510.1481514 543.4920435 C511.2497267 543.49237284 511.2497267 543.49237284 512.37355605 543.49270885 C513.47765866 543.49303626 513.47765866 543.49303626 514.60406637 543.49337029 C516.09543832 543.49381375 517.58681027 543.49426031 519.07818222 543.49470997 C520.18782301 543.49504211 520.18782301 543.49504211 521.31988078 543.49538097 C533.291804 543.49932433 545.26366618 543.51676574 557.23556584 543.54006949 C569.54960742 543.56384415 581.86361847 543.57624816 594.17768335 543.57741141 C601.08235025 543.57832487 607.98693763 543.58399331 614.89158249 543.60223103 C621.39229746 543.61934215 627.89290226 543.62083915 634.3936348 543.61209202 C636.77070393 543.61132468 639.14778133 543.61562396 641.52482986 543.62555027 C664.80357329 543.85922387 664.80357329 543.85922387 686.43755722 536.06697559 C687.15024765 535.67042774 687.86293808 535.27387989 688.59722519 534.86531544 C702.91732114 526.66324083 711.52071338 514.27097728 716.09250796 498.41668677 C717.72066818 491.87592935 717.8483553 485.58669658 717.82998276 478.87050343 C717.83451387 477.64692025 717.83904498 476.42333707 717.8437134 475.16267562 C717.85414153 471.78756454 717.8556905 468.41266751 717.85332465 465.03755569 C717.85291487 461.38915405 717.86397093 457.74078365 717.87343979 454.09239674 C717.8900158 446.95243927 717.89554779 439.81251484 717.89666454 432.67253974 C717.89761661 426.86574812 717.90173483 421.05896734 717.9080658 415.25217915 C717.92566877 398.76994207 717.93490612 382.28773099 717.93340485 365.80548444 C717.93332494 364.9178898 717.93324502 364.03029517 717.93316269 363.11580372 C717.93308093 362.22711884 717.93299917 361.33843395 717.93291493 360.42281923 C717.93210225 346.02470783 717.95123781 331.6267011 717.97943942 317.22861996 C718.00820298 302.42623238 718.02197781 287.62389579 718.02025187 272.82147956 C718.01958918 264.51849332 718.02502842 256.21561682 718.04660797 247.91265583 C718.06486551 240.84286765 718.06912971 233.77323897 718.05558912 226.70343736 C718.04908248 223.10072857 718.04885803 219.49832536 718.06629562 215.8956461 C718.08505646 211.97908538 718.07241178 208.0629651 718.05703354 204.14638233 C718.07246423 202.46146462 718.07246423 202.46146462 718.08820665 200.74250817 C717.95948322 185.83254379 712.32245252 170.25569661 701.95318222 159.35213184 C689.85213497 148.73405607 676.05339494 144.06003249 660.22661972 144.15681934 C658.90759155 144.15894176 658.90759155 144.15894176 657.56191635 144.16110706 C654.7704278 144.16667682 651.97902128 144.17922369 649.18755722 144.19197559 C647.2878188 144.1969945 645.38807912 144.20155673 643.48833847 144.20564747 C638.84638008 144.21663634 634.20448253 144.23388002 629.56255722 144.25447559 C629.58986923 142.58832203 629.58986923 142.58832203 629.617733 140.8885088 C629.56458074 137.38775029 629.45766564 136.15451112 627.43755722 133.44197559 C627.0431041 132.87865528 626.64865097 132.31533497 626.24224472 131.73494434 C620.75899667 126.90203501 613.01296386 128.02496407 606.18755722 128.12947559 C604.51113144 128.14301075 604.51113144 128.14301075 602.80083847 128.15681934 C600.0545226 128.18029213 597.3086525 128.21312832 594.56255722 128.25447559 C594.62829941 126.70179981 594.62829941 126.70179981 594.69536972 125.11775684 C594.35545592 115.23026421 588.02403145 103.95196637 581.27349472 96.84431934 C576.09269882 92.04045441 570.60200129 87.91117024 564.56255722 84.25447559 C563.65505722 83.67697559 562.74755722 83.09947559 561.81255722 82.50447559 C537.39854917 73.1144725 510.65748242 80.29223468 493.56255722 99.44197559 Z " fill="#FEF6EA" transform="translate(114.43744277954102,20.745524406433105)"/>
<path d="M0 0 C1.78513619 0.02009777 3.57029425 0.03834274 5.35546875 0.0546875 C9.6958596 0.09841914 14.0351846 0.16726411 18.375 0.25 C18.37910889 1.4052417 18.38321777 2.5604834 18.38745117 3.75073242 C18.40926324 8.04691869 18.46357402 12.34219179 18.52758789 16.63793945 C18.55074988 18.49527213 18.5651594 20.35273582 18.57055664 22.21020508 C18.57985962 24.884455 18.62087697 27.55664968 18.66796875 30.23046875 C18.6640361 31.05773972 18.66010345 31.88501068 18.65605164 32.73735046 C18.67569473 33.51778214 18.69533783 34.29821381 18.71557617 35.10229492 C18.72223801 35.78402267 18.72889984 36.46575043 18.73576355 37.1681366 C19.76268676 40.51261711 21.71345907 42.04172079 24.375 44.25 C27.72846148 44.995009 27.72846148 44.995009 31.47241211 44.87818909 C32.17552741 44.88528347 32.87864271 44.89237786 33.60306454 44.89968723 C35.95338443 44.91725561 38.30204791 44.89917053 40.65234375 44.88110352 C42.33953606 44.88624283 44.026723 44.8935242 45.71389771 44.90278625 C50.29250579 44.92130709 54.87053186 44.90835751 59.44911575 44.88869596 C64.2407423 44.87231373 69.03233186 44.88112176 73.82397461 44.88621521 C81.87070007 44.89073664 89.91719312 44.87486325 97.96386719 44.84692383 C107.26674758 44.81487169 116.56920879 44.81488749 125.87211895 44.8321386 C134.82146651 44.84800274 143.77066039 44.84127085 152.72000122 44.82420158 C156.52853486 44.81732923 160.33694538 44.81836543 164.14547729 44.82574654 C168.63046439 44.83340807 173.11497447 44.82128771 177.59988022 44.79389763 C179.24580342 44.7870113 180.89177114 44.7869185 182.53769302 44.79411316 C184.78485684 44.80280404 187.03054726 44.78686046 189.27758789 44.7646637 C190.53487198 44.76185678 191.79215607 44.75904985 193.08753967 44.75615788 C196.96276569 44.15950393 198.61290693 42.97809897 201.375 40.25 C203.01157754 36.97684491 202.6180807 33.34377769 202.69140625 29.7421875 C202.7225779 28.48125778 202.7225779 28.48125778 202.75437927 27.19485474 C202.81985439 24.50498765 202.8787502 21.81502157 202.9375 19.125 C202.98068716 17.30337511 203.02430152 15.48176029 203.06835938 13.66015625 C203.17553368 9.19020606 203.27680685 4.72015614 203.375 0.25 C208.17639866 0.17515805 212.97744862 0.12107546 217.77929688 0.08520508 C219.40858891 0.07023234 221.03784145 0.04984679 222.66699219 0.02368164 C234.34122616 -0.15895208 245.0363706 -0.30036238 254.5546875 7.4453125 C261.97942954 14.80632285 264.58876823 22.557461 264.651811 32.82980132 C264.6471652 34.54428069 264.6471652 34.54428069 264.64242554 36.293396 C264.64695665 37.5165326 264.65148776 38.73966919 264.65615618 39.99987054 C264.66661782 43.38755091 264.6681275 46.77501878 264.66576743 50.16270018 C264.66535888 53.81927729 264.67640208 57.47582287 264.68588257 61.13238525 C264.70248569 68.29380536 264.70799182 75.45519254 264.70910732 82.61663029 C264.71005819 88.43925171 264.7141704 94.26186229 264.72050858 100.08448029 C264.73811963 116.59963879 264.74734774 133.11477132 264.74584763 149.62993929 C264.74576772 150.52001831 264.7456878 151.41009733 264.74560547 152.32714844 C264.74552371 153.21831676 264.74544195 154.10948507 264.74535771 155.02765849 C264.74454499 169.46678634 264.7636793 183.90580983 264.7918822 198.34490749 C264.82062499 213.17769594 264.83442171 228.01043351 264.83269465 242.84325051 C264.8320312 251.16798323 264.83750375 259.49260655 264.85905075 267.81731415 C264.87728098 274.90592557 264.88159486 281.99437803 264.8680319 289.08300278 C264.86151129 292.69747024 264.86135177 296.31163289 264.8787384 299.92607117 C264.89742102 303.8504109 264.8848907 307.7743079 264.86947632 311.69866943 C264.87976344 312.83273279 264.89005057 313.96679615 264.90064943 315.13522506 C264.81112399 325.46477534 261.8219684 334.8184179 254.375 342.25 C244.72994209 349.84323659 235.92365493 351.55922642 223.90699768 351.51069641 C222.88955898 351.51452196 221.87212027 351.51834751 220.8238501 351.52228898 C217.43402698 351.53256069 214.04437508 351.52863792 210.65454102 351.5246582 C208.21626632 351.52900786 205.77799299 351.53419186 203.33972168 351.54014587 C197.41596968 351.55213149 191.49225975 351.55469071 185.56850023 351.55234561 C180.75138514 351.55055878 175.93428378 351.55231989 171.11717033 351.55657005 C170.43021202 351.55716524 169.74325371 351.55776043 169.03547848 351.55837366 C167.6396966 351.55958547 166.24391472 351.5607996 164.84813284 351.56201603 C151.77471402 351.57287871 138.70132103 351.57073498 125.62790077 351.56463119 C113.68182189 351.55946189 101.73582455 351.57072006 89.78976179 351.58972941 C77.50618607 351.60912514 65.22264889 351.61736085 52.93905777 351.61360615 C46.0496772 351.6116969 39.16036604 351.61415478 32.270998 351.62832069 C25.79242358 351.64150784 19.31397145 351.63895095 12.83539581 351.62590981 C10.461066 351.62354546 8.08672469 351.62627357 5.71240807 351.63453293 C2.46474553 351.6450137 -0.78237082 351.6368886 -4.03001404 351.6242218 C-4.96359267 351.63159609 -5.89717131 351.63897037 -6.8590402 351.64656812 C-18.2482486 351.55348155 -27.24739622 348.04893099 -35.625 340.25 C-42.50023059 331.34376317 -43.92251975 323.17869521 -43.90588379 312.18209839 C-43.91182603 310.95628937 -43.91776828 309.73048035 -43.92389059 308.4675256 C-43.93822233 305.0723131 -43.94360694 301.67730307 -43.94508553 298.28207493 C-43.94879532 294.61727202 -43.96389441 290.95251262 -43.97735596 287.28773499 C-44.00448894 279.27721552 -44.0165669 271.26671612 -44.02537727 263.25615835 C-44.0309081 258.25117285 -44.03938392 253.24619505 -44.04838562 248.24121475 C-44.07276709 234.37494073 -44.09336614 220.50867285 -44.1001358 206.64237785 C-44.10057494 205.75535634 -44.10101407 204.86833482 -44.10146651 203.95443387 C-44.10190306 203.06532863 -44.10233962 202.1762234 -44.1027894 201.26017559 C-44.10367632 199.45860664 -44.10456945 197.65703769 -44.10546875 195.85546875 C-44.10591161 194.96183444 -44.10635447 194.06820013 -44.10681075 193.14748599 C-44.11470332 178.67409507 -44.14960259 164.20090576 -44.19618779 149.72759269 C-44.24366604 134.85637359 -44.26854184 119.98525553 -44.27087164 105.11395943 C-44.27270236 96.76897518 -44.28413607 88.4242536 -44.32051086 80.07934189 C-44.35138239 72.97207482 -44.36151336 65.8651516 -44.34503466 58.75783019 C-44.33724551 55.13486594 -44.33896022 51.51259336 -44.36714935 47.88971519 C-44.39750048 43.95278348 -44.38082373 40.0168136 -44.35998535 36.07980347 C-44.37609816 34.94767485 -44.39221097 33.81554622 -44.40881205 32.64911067 C-44.29749888 23.62311863 -41.66614901 15.90904232 -35.68240595 9.01038253 C-25.44965822 -0.95613904 -13.31889833 -0.26159037 0 0 Z " fill="#55B39B" transform="translate(541.625,187.75)"/>
<path d="M0 0 C70.95 0 141.9 0 215 0 C215.375 99.875 215.375 99.875 215.47802734 131.39794922 C215.51794104 140.73171055 215.51794104 140.73171055 215.56045532 150.06546021 C215.57930545 154.21918439 215.59266906 158.37288715 215.60269165 162.52664185 C215.61567026 167.83059109 215.63808507 173.13442287 215.66723371 178.43830705 C215.67632347 180.38134747 215.68214238 182.32440672 215.68425441 184.26746726 C215.70726491 202.40545229 217.15324076 215.81488859 230.2734375 229.515625 C239.32790539 237.76582784 252.12997288 241.8768961 264.39453125 241.34765625 C277.38716806 239.61400606 287.6947878 236.67742069 297 227 C297.66 227 298.32 227 299 227 C300.03982697 228.2170702 301.03210223 229.47498082 302 230.75 C306.96551299 236.61927791 313.51809906 238.89314694 321 240 C323.9390701 240.11301338 326.87184965 240.09454397 329.8125 240.0625 C330.60076172 240.05798828 331.38902344 240.05347656 332.20117188 240.04882812 C334.13414761 240.03711312 336.06708393 240.01917998 338 240 C329.99674822 251.1890122 313.9542186 256.26277675 300.85936832 258.54810715 C296.39791569 259.07049796 292.0455292 259.14495683 287.55870056 259.14044189 C286.16184575 259.14489858 286.16184575 259.14489858 284.73677164 259.1494453 C281.62650718 259.15809415 278.51628138 259.15963732 275.40600586 259.16113281 C273.17155882 259.16576373 270.93711257 259.17078876 268.70266724 259.17617798 C262.63828585 259.18927871 256.57391552 259.19574256 250.5095222 259.20018864 C246.71678631 259.2031235 242.92405342 259.20722912 239.13131905 259.21169281 C228.61313887 259.22379758 218.09496047 259.23418064 207.57677364 259.2375679 C206.90445838 259.23778747 206.23214312 259.23800703 205.53945467 259.23823325 C204.86560471 259.23845153 204.19175476 259.23866981 203.4974851 259.2388947 C202.13219384 259.23933815 200.76690258 259.23978472 199.40161133 259.24023438 C198.38578144 259.24056652 198.38578144 259.24056652 197.34942973 259.24090537 C186.38883975 259.24484902 175.42831642 259.26229184 164.46775215 259.2855939 C153.19219814 259.30937042 141.91667631 259.32151522 130.64109331 259.32293582 C124.31939982 259.32398144 117.9978004 259.32983739 111.67613029 259.34775543 C105.72449857 259.36429677 99.77303102 259.36636222 93.82138443 259.35761642 C91.64546454 259.35684926 89.4695356 259.36114616 87.29363823 259.37107468 C75.77876247 259.42050555 65.15526289 259.1629491 54 256 C53.22659743 255.78800083 52.45319487 255.57600166 51.65635586 255.35757828 C32.6112642 249.72210253 17.58749302 235.95119684 8.18359375 218.66015625 C7.55482594 217.42183208 6.9311207 216.18092436 6.3125 214.9375 C5.75175781 213.81214844 5.19101563 212.68679688 4.61328125 211.52734375 C-0.46814389 198.82749225 -0.42633038 185.08904139 -0.34057617 171.65039062 C-0.33965481 169.7360918 -0.34006164 167.82179196 -0.34167194 165.90749359 C-0.34234288 160.8302077 -0.32509056 155.75313853 -0.30384064 150.67590332 C-0.28662031 145.89297889 -0.28594397 141.11010435 -0.28381348 136.32714844 C-0.26813801 122.38473747 -0.2262542 108.44236591 -0.1875 94.5 C-0.0946875 47.7225 -0.0946875 47.7225 0 0 Z " fill="#804630" transform="translate(95,435)"/>
<path d="M0 0 C1.9375 1.75 1.9375 1.75 3 3 C4.00417969 2.67773438 5.00835937 2.35546875 6.04296875 2.0234375 C14.69252529 -0.4329583 24.56708553 -0.20638946 32.7265625 3.68359375 C40.75613613 8.3330204 46.03678518 13.49851567 50 22 C50 22.66 50 23.32 50 24 C50.82242188 23.94199219 51.64484375 23.88398438 52.4921875 23.82421875 C60.74627132 23.49062414 66.06181862 24.55336485 73 29 C73.70898438 29.38800781 74.41796875 29.77601563 75.1484375 30.17578125 C82.45862722 34.69913619 86.58643142 43.52242174 88.6875 51.6640625 C89.15286368 55.14265604 89.05944886 58.49251711 89 62 C89.88558594 62.10183594 90.77117187 62.20367187 91.68359375 62.30859375 C97.68785328 63.56036517 102.7853919 67.32808303 106.68359375 72.03125 C112.37881321 80.81912573 112.93094488 88.67428882 110.9375 98.75 C110.74027344 99.63171875 110.54304688 100.5134375 110.33984375 101.421875 C109.83825814 105.22700722 110.26529227 107.84974329 112.33984375 111.09765625 C112.86707031 111.74605469 113.39429688 112.39445312 113.9375 113.0625 C119.76532167 120.29358095 120.6360123 127.88382367 120 137 C118.63602941 145.36397059 118.63602941 145.36397059 117 147 C115.50392983 147.09679771 114.00328663 147.12371741 112.5040884 147.12304783 C111.52674659 147.12503888 110.54940478 147.12702993 109.54244655 147.12908131 C108.45589387 147.12616847 107.36934119 147.12325563 106.24986267 147.12025452 C105.10561359 147.12110894 103.9613645 147.12196337 102.7824412 147.12284368 C99.59224494 147.12421182 96.40208877 147.12106454 93.21189725 147.11606562 C89.77698156 147.11176428 86.34206789 147.11320732 82.90715027 147.1139679 C76.95123281 147.11449333 70.99532626 147.11134448 65.03941154 147.10573006 C56.42806175 147.09761771 47.81671726 147.09500011 39.20536406 147.09374207 C25.23545781 147.09155113 11.26555738 147.08488991 -2.7043457 147.07543945 C-16.27823863 147.06626642 -29.85212999 147.05918505 -43.42602539 147.05493164 C-44.26212143 147.05466892 -45.09821747 147.05440619 -45.95964975 147.05413551 C-50.15391906 147.05283051 -54.34818837 147.05156679 -58.5424577 147.05032361 C-93.36164262 147.03994969 -128.18082077 147.02233024 -163 147 C-163.49347325 145.5559485 -163.9838486 144.11083809 -164.47290039 142.6652832 C-164.74630753 141.8606514 -165.01971466 141.05601959 -165.30140686 140.227005 C-167.91964204 131.88048325 -165.30705657 123.78395627 -162 116 C-160.79431708 113.83150555 -159.49532003 111.99376003 -158 110 C-156.23258598 107.04623959 -155.79813445 105.38427789 -156.375 102 C-157.87599813 90.71471776 -157.22949572 82.15760813 -151.375 72.25 C-146.85749882 67.97026204 -141.17972513 64.20161322 -135 63 C-134.97421875 62.32195312 -134.9484375 61.64390625 -134.921875 60.9453125 C-134.25168184 49.94805202 -130.91066928 40.88147861 -123 33 C-116.65880373 28.04061665 -110.03689604 23.9370063 -101.75390625 24.0234375 C-99.23363386 23.99793727 -97.37447928 23.87164429 -95 23 C-92.89405979 20.67514709 -91.32862874 18.23777298 -89.67578125 15.57421875 C-85.07514909 8.50704721 -77.84182049 4.61394016 -70 2 C-68.54904656 1.98693619 -67.09711698 2.03103581 -65.6484375 2.11328125 C-52.22953486 2.71228931 -52.22953486 2.71228931 -41 -4 C-27.63675842 -11.24413917 -12.2611134 -8.26292425 0 0 Z " fill="#EFF3DD" transform="translate(302,264)"/>
<path d="M0 0 C2.45031037 -0.00570858 4.90061808 -0.01267472 7.35092163 -0.02079773 C13.29400559 -0.0368367 19.23699177 -0.03884041 25.18008582 -0.03358483 C30.0156846 -0.02952821 34.85125227 -0.03100431 39.68684959 -0.03633308 C40.37750854 -0.03708151 41.06816749 -0.03782993 41.7797555 -0.03860103 C43.18325813 -0.04013266 44.58676075 -0.04167101 45.99026337 -0.043216 C59.12585527 -0.0569158 72.26138747 -0.0515214 85.39697798 -0.04003078 C97.38478087 -0.03010379 109.3724293 -0.04303428 121.36020837 -0.06696498 C133.70154215 -0.09141375 146.04280416 -0.10094953 158.38416165 -0.09431225 C165.29994429 -0.09083247 172.21560827 -0.09296933 179.13137245 -0.11056328 C185.63794369 -0.12691239 192.14429362 -0.12201409 198.65085983 -0.10325813 C201.0295411 -0.0995877 203.4082444 -0.10263521 205.78690529 -0.11314392 C228.13829425 -0.20429951 247.95215499 2.90083031 264.6315918 19.13842773 C265.35862305 19.88608398 266.0856543 20.63374023 266.8347168 21.40405273 C267.54112305 22.08983398 268.2475293 22.77561523 268.9753418 23.48217773 C281.56280395 36.45398987 285.31032418 52.45967537 285.17529297 69.95141602 C285.17444527 71.49966922 285.17492462 73.04792364 285.17662048 74.59617615 C285.1774763 78.77117815 285.15991814 82.94591816 285.13889861 87.12085962 C285.12006231 91.49436752 285.11837591 95.86788235 285.11482239 100.24142456 C285.10552226 108.51077741 285.08093617 116.78001036 285.05077392 125.04931056 C285.01716642 134.46893517 285.00072797 143.88856571 284.98568761 153.30823541 C284.95438467 172.67357755 284.90105504 192.03880108 284.8347168 211.40405273 C278.5647168 211.40405273 272.2947168 211.40405273 265.8347168 211.40405273 C266.1647168 209.42405273 266.4947168 207.44405273 266.8347168 205.40405273 C268.83708209 192.00693243 268.00634511 178.86404638 260.1394043 167.35717773 C258.43706857 164.80877095 257.69997453 163.14954265 258.25268555 160.09155273 C258.44475586 159.20467773 258.63682617 158.31780273 258.8347168 157.40405273 C259.86397646 144.98544434 257.25381943 132.61468641 249.8347168 122.40405273 C246.11605479 118.15513707 242.49926683 114.31484426 237.5222168 111.59155273 C233.72256976 108.49881677 233.12180154 105.03211752 231.74487305 100.42749023 C228.14702605 88.475844 219.70567174 79.37416734 208.8347168 73.40405273 C203.71174514 70.73862255 199.05048131 68.44281835 193.2722168 67.84155273 C188.03123066 66.89966733 185.6864567 62.98106496 182.63085938 59.00708008 C175.72930183 50.18126683 163.74754749 44.63610904 152.8347168 42.40405273 C151.24388751 42.36923317 149.65137764 42.387545 148.0612793 42.44702148 C146.7000293 42.47892578 146.7000293 42.47892578 145.3112793 42.51147461 C143.41767757 42.5646511 141.52436946 42.62966426 139.6315918 42.70678711 C133.63924929 42.82137156 130.71876081 42.14093029 125.8347168 38.40405273 C122.37172478 37.1249531 122.37172478 37.1249531 118.7722168 36.21655273 C117.58499023 35.89299805 116.39776367 35.56944336 115.17456055 35.23608398 C104.68506809 32.62291218 95.31230653 32.62001583 84.8972168 35.59155273 C84.18791016 35.78765137 83.47860352 35.98375 82.74780273 36.18579102 C78.9338377 37.36063651 76.93721132 38.30992791 73.91674805 41.08374023 C69.62843945 44.3122007 66.63014684 43.73779222 61.4597168 43.34155273 C47.79609281 42.84064085 36.97953123 46.89388087 26.13549805 55.24780273 C23.81974595 57.41808314 22.21605168 59.58418707 20.4597168 62.21655273 C16.88205774 67.20488021 13.2171266 67.60189608 7.3737793 68.62280273 C-5.10262465 71.37697579 -16.00961876 79.30378692 -23.4152832 89.59155273 C-27.58571087 96.30463431 -30.67122589 103.9218808 -33.1652832 111.40405273 C-34.7668457 112.94702148 -34.7668457 112.94702148 -36.7902832 114.59155273 C-46.19814336 122.68903237 -53.6270454 132.64793439 -55.1652832 145.40405273 C-55.14927405 149.33524089 -54.99768357 153.26653521 -54.7746582 157.19116211 C-54.63100333 162.82512671 -55.67567696 165.98083673 -58.91821289 170.57519531 C-60.63560775 173.09379455 -61.51177845 175.6934464 -62.4152832 178.59155273 C-62.72981445 179.57510742 -63.0443457 180.55866211 -63.3684082 181.57202148 C-64.77545402 186.57255196 -65.30177053 191.0070505 -65.2902832 196.21655273 C-65.29286133 197.37799805 -65.29543945 198.53944336 -65.2980957 199.73608398 C-65.15669875 203.64113514 -64.6499626 207.52661756 -64.1652832 211.40405273 C-70.4352832 211.40405273 -76.7052832 211.40405273 -83.1652832 211.40405273 C-83.23486368 191.79298341 -83.28833531 172.1819492 -83.32071972 152.57078171 C-83.33615903 143.46405574 -83.35719215 134.3574081 -83.39160156 125.25073242 C-83.4215941 117.30919567 -83.44087952 109.36771568 -83.44754869 101.42612386 C-83.45144432 97.22487562 -83.46053773 93.02378968 -83.48247337 88.82259369 C-83.50299461 84.85979075 -83.50908578 80.89721535 -83.50460625 76.93436432 C-83.50542451 75.48809061 -83.51129641 74.04180845 -83.52289963 72.59558105 C-83.61616758 60.35962667 -81.76789703 49.68685773 -76.4152832 38.65405273 C-76.06747803 37.92669922 -75.71967285 37.1993457 -75.36132812 36.44995117 C-72.66889523 31.01249642 -69.58594234 26.59378192 -65.1652832 22.40405273 C-64.4021582 21.55842773 -63.6390332 20.71280273 -62.8527832 19.84155273 C-43.84251003 2.59967706 -24.4962063 -0.05154116 0 0 Z " fill="#F6CE8B" transform="translate(178.165283203125,199.595947265625)"/>
<path d="M0 0 C70.95 0 141.9 0 215 0 C215.375 99.875 215.375 99.875 215.47802734 131.39794922 C215.51794104 140.73171055 215.51794104 140.73171055 215.56045532 150.06546021 C215.57930545 154.21918439 215.59266906 158.37288715 215.60269165 162.52664185 C215.61567026 167.83059109 215.63808507 173.13442287 215.66723371 178.43830705 C215.67632347 180.38134747 215.68214238 182.32440672 215.68425441 184.26746726 C215.70726491 202.40545229 217.15324076 215.81488859 230.2734375 229.515625 C239.32790539 237.76582784 252.12997288 241.8768961 264.39453125 241.34765625 C277.38716806 239.61400606 287.6947878 236.67742069 297 227 C297.66 227 298.32 227 299 227 C300.03982697 228.2170702 301.03210223 229.47498082 302 230.75 C306.96551299 236.61927791 313.51809906 238.89314694 321 240 C323.9390701 240.11301338 326.87184965 240.09454397 329.8125 240.0625 C330.60076172 240.05798828 331.38902344 240.05347656 332.20117188 240.04882812 C334.13414761 240.03711312 336.06708393 240.01917998 338 240 C329.99674822 251.1890122 313.9542186 256.26277675 300.85936832 258.54810715 C296.39791569 259.07049796 292.0455292 259.14495683 287.55870056 259.14044189 C286.16184575 259.14489858 286.16184575 259.14489858 284.73677164 259.1494453 C281.62650718 259.15809415 278.51628138 259.15963732 275.40600586 259.16113281 C273.17155882 259.16576373 270.93711257 259.17078876 268.70266724 259.17617798 C262.63828585 259.18927871 256.57391552 259.19574256 250.5095222 259.20018864 C246.71678631 259.2031235 242.92405342 259.20722912 239.13131905 259.21169281 C228.61313887 259.22379758 218.09496047 259.23418064 207.57677364 259.2375679 C206.90445838 259.23778747 206.23214312 259.23800703 205.53945467 259.23823325 C204.86560471 259.23845153 204.19175476 259.23866981 203.4974851 259.2388947 C202.13219384 259.23933815 200.76690258 259.23978472 199.40161133 259.24023438 C198.38578144 259.24056652 198.38578144 259.24056652 197.34942973 259.24090537 C186.38883975 259.24484902 175.42831642 259.26229184 164.46775215 259.2855939 C153.19219814 259.30937042 141.91667631 259.32151522 130.64109331 259.32293582 C124.31939982 259.32398144 117.9978004 259.32983739 111.67613029 259.34775543 C105.72449857 259.36429677 99.77303102 259.36636222 93.82138443 259.35761642 C91.64546454 259.35684926 89.4695356 259.36114616 87.29363823 259.37107468 C75.77876247 259.42050555 65.15526289 259.1629491 54 256 C53.22659743 255.78800083 52.45319487 255.57600166 51.65635586 255.35757828 C32.6112642 249.72210253 17.58749302 235.95119684 8.18359375 218.66015625 C7.55482594 217.42183208 6.9311207 216.18092436 6.3125 214.9375 C5.75175781 213.81214844 5.19101563 212.68679688 4.61328125 211.52734375 C-0.46814389 198.82749225 -0.42633038 185.08904139 -0.34057617 171.65039062 C-0.33965481 169.7360918 -0.34006164 167.82179196 -0.34167194 165.90749359 C-0.34234288 160.8302077 -0.32509056 155.75313853 -0.30384064 150.67590332 C-0.28662031 145.89297889 -0.28594397 141.11010435 -0.28381348 136.32714844 C-0.26813801 122.38473747 -0.2262542 108.44236591 -0.1875 94.5 C-0.0946875 47.7225 -0.0946875 47.7225 0 0 Z M89 49 C87.95397929 50.39817231 86.93291296 51.81535782 85.9375 53.25 C83.43985477 56.38685302 82.23405692 56.9541538 78.2109375 57.7421875 C75.99181213 57.96480436 73.77264336 58.12790093 71.54833984 58.28979492 C57.69635932 59.4148365 47.92512399 68.0672663 39.125 78.25 C33.13980373 86.3576063 31.19458836 96.08896236 32 106 C31.278125 106.2475 30.55625 106.495 29.8125 106.75 C20.09884305 111.06718087 14.6117645 120.54256563 10.93359375 130.09375 C9.64000194 134.12066342 9.0993514 137.78466208 9 142 C8.96132812 142.88945313 8.92265625 143.77890625 8.8828125 144.6953125 C8.25361878 170.9117174 18.02108795 195.91432321 36 215 C48.81041297 228.11491932 66.03587985 237.64855961 84.4375 239.125 C85.77518433 239.24174072 85.77518433 239.24174072 87.13989258 239.36083984 C98.74088326 240.31074501 110.36709679 240.69461508 122 241 C122.89509277 241.02868164 123.79018555 241.05736328 124.71240234 241.08691406 C140.7054356 241.58505178 140.7054356 241.58505178 155.375 235.875 C167.15144132 222.97699284 168.61218318 210.02997225 168.17700195 193.19140625 C168.06855917 190.98984155 168.06855917 190.98984155 167.41577148 188.89282227 C166.73121613 185.77634683 168.33620845 183.70785821 169.75 180.9375 C174.91761744 170.25456001 177.16767265 159.9470093 177.0625 148.0625 C177.05573242 147.03672852 177.05573242 147.03672852 177.04882812 145.99023438 C177.0371956 144.32678396 177.01926694 142.6633795 177 141 C178.58167969 140.82984375 178.58167969 140.82984375 180.1953125 140.65625 C189.54837523 139.04299072 197.16269743 132.21008333 203 125 C204.74394069 122.09507897 205.95294386 119.21637134 207 116 C207.22300781 115.36578125 207.44601562 114.7315625 207.67578125 114.078125 C210.83388885 103.68000203 209.38323263 92.80071115 205 83 C202.66620746 79.30310739 200.025763 76.14812841 197 73 C196.38125 72.35289062 195.7625 71.70578125 195.125 71.0390625 C187.32736214 63.59881638 178.95093313 59.8937089 168.3125 59.1875 C162.47199962 58.77759538 159.18700826 58.14582053 155 53.6875 C154.32582031 52.883125 153.65164062 52.07875 152.95703125 51.25 C146.16722528 43.44375601 132.97652497 39.75294528 123 39 C122.37480469 38.93683594 121.74960938 38.87367188 121.10546875 38.80859375 C110.12260894 38.17692649 97.51924475 42.01961324 89 49 Z " fill="#F5CE8A" transform="translate(95,435)"/>
<path d="M0 0 C0.33 0 0.66 0 1 0 C1.07526453 4.72815638 1.12911619 9.45594922 1.16479492 14.18457031 C1.17969902 15.78652027 1.20002947 17.3884308 1.22631836 18.99023438 C1.53252354 38.15507628 -1.48169901 54.29854497 -14.3828125 69.328125 C-27.30170375 82.51696323 -44.74198398 91.81383663 -63.49585247 92.13701439 C-65.28283111 92.14768051 -67.06984709 92.1529322 -68.8568573 92.15390015 C-69.84496487 92.1582824 -70.83307245 92.16266465 -71.85112268 92.1671797 C-75.16010916 92.18052724 -78.46906902 92.18673759 -81.77807617 92.19287109 C-84.15204487 92.20077554 -86.52601238 92.2090447 -88.89997864 92.21765137 C-96.02406237 92.24157969 -103.14815131 92.25679754 -110.27226183 92.26971143 C-112.2879569 92.27342826 -114.30365131 92.27740111 -116.31934571 92.2814641 C-128.86265865 92.30671295 -141.40597281 92.32874498 -153.94930553 92.34119225 C-156.85186454 92.34412149 -159.75442351 92.34708321 -162.65698242 92.35009766 C-163.73898207 92.35121673 -163.73898207 92.35121673 -164.84284029 92.35235842 C-176.50177835 92.36498484 -188.16056298 92.39817386 -199.81942948 92.43989949 C-211.81705379 92.48248162 -223.81459994 92.50590622 -235.81229955 92.51111281 C-242.53722025 92.5145093 -249.26186481 92.5266326 -255.98671532 92.55921555 C-262.32418351 92.58948059 -268.66123691 92.59554244 -274.99876213 92.58383179 C-277.31127221 92.58361256 -279.62380257 92.59179089 -281.93624496 92.60948563 C-305.1134489 92.77702662 -325.45738328 89.32514806 -343 73 C-351.17081357 64.78011248 -356.35235838 55.94157487 -360 45 C-360.20608887 44.38761475 -360.41217773 43.77522949 -360.62451172 43.14428711 C-362.88226039 34.9959391 -362.21425045 26.31778016 -362.125 17.9375 C-362.11495163 16.29232315 -362.10582906 14.64714036 -362.09765625 13.00195312 C-362.07578623 9.00115385 -362.04135854 5.00064334 -362 1 C-360.89496448 1.92841176 -359.792633 2.86004242 -358.69140625 3.79296875 C-358.07724854 4.31141357 -357.46309082 4.8298584 -356.83032227 5.36401367 C-355.07838523 6.92993738 -353.50816782 8.56713212 -351.9375 10.3125 C-339.44972862 22.96864583 -318.27664781 32.84329297 -300.53793526 33.13422108 C-298.70752968 33.14362085 -296.87709106 33.14752848 -295.04666138 33.14717102 C-294.0361682 33.15084771 -293.02567503 33.1545244 -291.98456085 33.1583125 C-288.59403152 33.16933704 -285.20353285 33.17319116 -281.81298828 33.17700195 C-279.38341678 33.18326768 -276.95384623 33.18991457 -274.52427673 33.19691467 C-267.22922965 33.21613292 -259.93418511 33.22674297 -252.6391204 33.23564246 C-249.19820333 33.24003139 -245.75728779 33.24539674 -242.31637192 33.25063133 C-230.86752454 33.26764301 -219.4186781 33.28213416 -207.96982002 33.28938007 C-205.00071334 33.29128978 -202.03160666 33.29321013 -199.0625 33.29516602 C-198.32459909 33.29564976 -197.58669817 33.2961335 -196.82643662 33.2966319 C-184.88993221 33.30492089 -172.95352837 33.33023889 -161.0170678 33.36274669 C-148.7437704 33.39589737 -136.47052396 33.41383617 -124.19718158 33.41702431 C-117.31369404 33.41918235 -110.43035304 33.42782645 -103.54690933 33.45348549 C-97.06425781 33.47759547 -90.58179767 33.48096812 -84.09910774 33.47072411 C-81.72848573 33.47023047 -79.35785045 33.47649953 -76.98726845 33.49028015 C-64.30614479 33.55983233 -53.052657 33.17362626 -41 29 C-39.882036 28.65288121 -38.764072 28.30576242 -37.6122303 27.94812489 C-23.48750566 23.46504136 -8.26790616 12.40185924 0 0 Z " fill="#57B79E" transform="translate(458,683)"/>
<path d="M0 0 C7.68073893 4.48394786 13.54972759 11.37238791 15.99609375 20.00390625 C16.78389638 24.68192008 16.89548445 29.41220993 17.1328125 34.14453125 C17.50289132 38.37197009 18.25499234 41.01546809 20.4375 44.625 C24.02172296 47.01448197 25.80982596 46.92733168 30.07421875 47.0390625 C31.24428467 47.07467285 32.41435059 47.1102832 33.61987305 47.14697266 C35.84991089 47.19797119 35.84991089 47.19797119 38.125 47.25 C45.2096875 47.435625 45.2096875 47.435625 52.4375 47.625 C52.4375 59.835 52.4375 72.045 52.4375 84.625 C7.2275 84.625 -37.9825 84.625 -84.5625 84.625 C-84.5625 72.415 -84.5625 60.205 -84.5625 47.625 C-69.375 47.4375 -69.375 47.4375 -64.60864258 47.41723633 C-63.36236084 47.38911865 -62.1160791 47.36100098 -60.83203125 47.33203125 C-58.92321167 47.30846558 -58.92321167 47.30846558 -56.97583008 47.28442383 C-52.7106284 46.46042628 -51.23788951 44.97953876 -48.5625 41.625 C-47.58536481 38.69359444 -47.42006395 36.2443072 -47.32373047 33.17993164 C-46.92025164 21.59260744 -44.22690005 11.89556369 -35.5625 3.625 C-25.24921321 -4.11794751 -11.72464307 -5.18789516 0 0 Z " fill="#EF8E63" transform="translate(668.5625,125.375)"/>
<path d="M0 0 C19.81874577 4.16541094 35.61989775 14.23501609 49.8125 28.375 C51.03259766 29.54289063 51.03259766 29.54289063 52.27734375 30.734375 C63.40497145 42.0771238 72.76231986 59.22880416 73.25 75.25 C73.05406376 80.89836888 72.33217425 84.98557949 68.09814453 89.00073242 C65.08607275 90.81177195 62.99548284 90.74759451 59.4921875 90.73828125 C57.61841431 90.7396106 57.61841431 90.7396106 55.70678711 90.7409668 C54.36700831 90.7244253 53.02724508 90.70657792 51.6875 90.6875 C50.31974285 90.67683717 48.95198569 90.66617638 47.58422852 90.65551758 C23.9486448 90.39109966 1.03401103 88.42581158 -16.56640625 71.09765625 C-19.83564896 67.70173648 -22.6603129 64.35043186 -25.1875 60.375 C-26.06341797 59.01955078 -26.06341797 59.01955078 -26.95703125 57.63671875 C-35.95248229 43.03568138 -40.20117095 25.6488507 -36.328125 8.58984375 C-31.02497459 -6.35704936 -12.26325819 -2.37905334 0 0 Z " fill="#F5CD8A" transform="translate(166.1875,562.625)"/>
<path d="M0 0 C4.56238861 3.7512973 8.12202942 8.36608826 10 14 C10.09570315 15.60379647 10.13490458 17.21126178 10.14044189 18.81790161 C10.14615204 19.8103035 10.15186218 20.80270538 10.15774536 21.82518005 C10.15886322 22.91299271 10.15998108 24.00080536 10.16113281 25.12158203 C10.16858017 26.84156654 10.16858017 26.84156654 10.17617798 28.59629822 C10.1908148 32.40014237 10.1976051 36.20394478 10.203125 40.0078125 C10.20887636 42.64997357 10.2146341 45.29213462 10.22039795 47.93429565 C10.2299706 52.77164804 10.23586617 57.60899143 10.2388947 62.44635212 C10.24336777 69.55113965 10.26088011 76.65573405 10.2898953 83.76046288 C10.31157154 89.26041017 10.32160223 94.76030338 10.32293582 100.26029289 C10.32398015 103.54088467 10.3312704 106.82125451 10.34775543 110.10181046 C10.36486242 113.76870463 10.36292366 117.43513259 10.35644531 121.10205078 C10.37026749 122.71555168 10.37026749 122.71555168 10.3843689 124.36164856 C10.34089178 132.24118806 9.13057458 138.5781681 4.9375 145.3125 C-0.19225881 150.00568359 -6.06663595 152.15850871 -13 152.5625 C-19.33004057 152.27341153 -24.95317055 149.72573502 -29.66796875 145.5078125 C-33.59540294 141.0620952 -35.24521543 136.68327513 -35.26742554 130.82096863 C-35.27595551 129.79912979 -35.28448547 128.77729095 -35.29327393 127.7244873 C-35.29236755 126.61424194 -35.29146118 125.50399658 -35.29052734 124.36010742 C-35.29724457 123.18229202 -35.30396179 122.00447662 -35.31088257 120.79096985 C-35.32660851 117.56765074 -35.33323665 114.34448642 -35.33451414 111.12113357 C-35.33593827 109.1043836 -35.34021284 107.08766043 -35.34550858 105.07091713 C-35.36399958 98.02667153 -35.3721805 90.98250149 -35.37060547 83.93823242 C-35.36940482 77.38584007 -35.39049409 70.83377751 -35.4220928 64.28146857 C-35.44830122 58.64475566 -35.45897084 53.00815014 -35.45769465 47.37137681 C-35.45718628 44.00977206 -35.46279917 40.64846045 -35.48405075 37.28691673 C-35.50367692 33.53369274 -35.49788466 29.78131419 -35.48583984 26.02807617 C-35.49707886 24.9239035 -35.50831787 23.81973083 -35.51989746 22.68209839 C-35.45884251 15.18358988 -34.28474194 9.89728123 -29.32421875 4.01171875 C-20.05113601 -3.490847 -10.85541056 -5.19895142 0 0 Z " fill="#F09065" transform="translate(370,502)"/>
<path d="M0 0 C5.91235653 2.76058991 9.24186435 7.08569747 11.74354744 13.08465767 C13.0697191 17.66140722 12.80225515 22.41607807 12.78295898 27.14428711 C12.78982224 28.32239456 12.79668549 29.50050201 12.80375671 30.71430969 C12.81887239 33.92932091 12.82053239 37.14396656 12.81481433 40.35899806 C12.81171284 43.05022549 12.81782556 45.74140104 12.82385308 48.43262106 C12.83787504 54.7851218 12.83635654 61.13748799 12.82495117 67.48999023 C12.81347219 74.02767242 12.82754683 80.56494426 12.85434765 87.10257238 C12.8765505 92.7308467 12.88313176 98.35899264 12.87727123 103.98730761 C12.87391128 107.34221543 12.87797498 110.69665068 12.89352226 114.05155754 C12.90842653 117.79501605 12.89775769 121.53757518 12.88061523 125.28100586 C12.8902832 126.38203644 12.89995117 127.48306702 12.90991211 128.61746216 C12.83207744 136.74913253 11.38661956 142.26963044 5.56640625 148.08984375 C-1.3390285 152.82886759 -7.33699602 154.45916291 -15.62109375 153.27734375 C-22.28736879 151.23491055 -26.43209588 148.27074198 -29.78125 142.14453125 C-31.32366029 138.7153586 -31.75048727 136.01939539 -31.76826477 132.30085754 C-31.77542007 131.27335388 -31.78257538 130.24585022 -31.78994751 129.18721008 C-31.79263641 128.06042343 -31.79532532 126.93363678 -31.7980957 125.77270508 C-31.8046669 124.58542816 -31.8112381 123.39815125 -31.81800842 122.17489624 C-31.83775736 118.23639571 -31.84941062 114.2979085 -31.859375 110.359375 C-31.8634237 109.00152758 -31.86754066 107.64368037 -31.87172508 106.28583336 C-31.89077421 99.90422815 -31.90500436 93.52263446 -31.91333705 87.14100629 C-31.92310101 79.78542449 -31.94939933 72.43014429 -31.98983794 65.07466871 C-32.02005138 59.38280801 -32.03481096 53.69103349 -32.03811806 47.99909419 C-32.04046313 44.60278889 -32.04935143 41.20680588 -32.07457924 37.81058693 C-32.09892616 34.01646568 -32.09801302 30.22313053 -32.09106445 26.42895508 C-32.10387451 25.31228958 -32.11668457 24.19562408 -32.12988281 23.04512024 C-32.08256005 15.94649942 -31.22851043 10.06188785 -26.17371082 4.75889301 C-18.7508452 -1.72659723 -9.40584491 -2.59326574 0 0 Z " fill="#F08F65" transform="translate(436.62109375,500.72265625)"/>
<path d="M0 0 C42.57 0 85.14 0 129 0 C129 19.47 129 38.94 129 59 C128.34 59 127.68 59 127 59 C125.93139005 57.83370548 124.9197002 56.61494068 123.9375 55.375 C116.59576664 46.8398573 108.13898146 42.70786025 96.88183594 41.8359375 C84.73640115 41.20745446 73.4666822 41.51863143 63.65625 49.5 C62.05123495 50.95359854 60.51244912 52.45066187 59 54 C56.08724428 52.65614581 53.7829338 51.09788886 51.3125 49.0625 C47.14325886 45.86139725 43.02304817 44.37712761 38 43 C37.01 42.67 36.02 42.34 35 42 C22.48778734 40.94452194 11.64433887 42.34226445 0 47 C0 31.49 0 15.98 0 0 Z " fill="#F6CB8A" transform="translate(335,436)"/>
<path d="M0 0 C1.5196092 0.88377918 3.02298981 1.79673263 4.5 2.75 C5.428125 3.3275 6.35625 3.905 7.3125 4.5 C9.5 6.75 9.5 6.75 10.203125 8.96484375 C11.27764322 12.05652571 11.99026391 13.59189068 14.5 15.75 C18.57136659 16.66833131 22.69289765 16.64678686 26.84985352 16.58862305 C34.06047936 16.49348522 40.04258058 17.62840172 46.25 21.4375 C51.41858384 26.74965561 53.82011953 30.78329753 54.0625 38.375 C53.75897985 45.4790122 51.7149692 48.58425233 46.6875 53.5 C38.62026805 59.19451667 31.48511393 57.75 21.5 57.75 C21.5 70.29 21.5 82.83 21.5 95.75 C18.72948771 92.28685964 16.13631472 88.8464244 13.5625 85.25 C-5.9607736 59.33555702 -33.746314 45.01342451 -65.5 39.75 C-68.82966979 39.32406438 -72.15111348 38.97851226 -75.5 38.75 C-75.24409814 31.71269882 -73.19579168 27.04032325 -68.5 21.75 C-63.4540272 17.74178387 -58.88972313 15.61479929 -52.39453125 15.65234375 C-51.41162109 15.65556641 -50.42871094 15.65878906 -49.41601562 15.66210938 C-47.87977539 15.67467773 -47.87977539 15.67467773 -46.3125 15.6875 C-44.75885742 15.69426758 -44.75885742 15.69426758 -43.17382812 15.70117188 C-40.61582734 15.7129599 -38.05794267 15.72941485 -35.5 15.75 C-35.36424561 14.96826416 -35.22849121 14.18652832 -35.08862305 13.38110352 C-33.85200662 7.85351526 -28.81437237 3.44693115 -24.25 0.3125 C-16.86831659 -3.8816383 -7.56262212 -3.70739069 0 0 Z " fill="#F48D45" transform="translate(226.5,499.25)"/>
<path d="M0 0 C1.12714417 -0.00708481 2.25428833 -0.01416962 3.41558838 -0.02146912 C4.64275574 -0.0189917 5.8699231 -0.01651428 7.13427734 -0.01396179 C9.08379303 -0.02162819 9.08379303 -0.02162819 11.07269287 -0.02944946 C14.63049899 -0.04281961 18.18819875 -0.04342047 21.74602509 -0.04088616 C24.71826594 -0.03981533 27.69048537 -0.04470257 30.66272163 -0.04949158 C37.67474093 -0.06057941 44.68670665 -0.06102794 51.69873047 -0.05497742 C58.9293571 -0.0489342 66.15978931 -0.06125902 73.39038277 -0.08254749 C79.60283714 -0.10016486 85.81522962 -0.10616473 92.02770805 -0.10290974 C95.73623825 -0.10109732 99.44462967 -0.10372913 103.15313721 -0.11762428 C107.28760404 -0.13253658 111.42167497 -0.12323138 115.55615234 -0.11161804 C116.7833197 -0.11926178 118.01048706 -0.12690552 119.27484131 -0.13478088 C120.40198547 -0.12776657 121.52912964 -0.12075226 122.69042969 -0.11352539 C123.66748871 -0.11369313 124.64454773 -0.11386087 125.6512146 -0.1140337 C129.93774138 0.48221371 132.5673967 2.52492249 135.65771484 5.44819641 C137.89560425 9.1780121 138.05316866 12.0129735 137.34521484 16.26069641 C135.54917581 20.4199447 133.0497827 22.71116523 129.34521484 25.26069641 C126.60436249 25.76126766 126.60436249 25.76126766 123.57653809 25.76190186 C122.42415146 25.77173599 121.27176483 25.78157013 120.0844574 25.79170227 C118.82923782 25.7820343 117.57401825 25.77236633 116.28076172 25.7624054 C114.93839451 25.76619062 113.59603121 25.77169234 112.25367737 25.77877808 C108.61515746 25.79272381 104.97711089 25.78156953 101.33861732 25.76506686 C97.52794665 25.7512011 93.71730302 25.75767818 89.90661621 25.76119995 C83.50765366 25.76390088 77.10887882 25.75043672 70.70996094 25.72724915 C63.31572134 25.70064004 55.92179554 25.69889269 48.52752447 25.71063751 C41.40959 25.72142307 34.29176886 25.71522214 27.17384338 25.70108223 C24.14682837 25.69532915 21.11989647 25.69539975 18.09288025 25.70014763 C14.52721218 25.70492596 10.96188698 25.69478071 7.3962841 25.67319298 C5.46619682 25.66498941 3.53606459 25.67146853 1.60597229 25.6783905 C0.45358566 25.66848587 -0.69880096 25.65858124 -1.8861084 25.64837646 C-3.38488148 25.64473162 -3.38488148 25.64473162 -4.9139328 25.64101315 C-8.13757774 25.19370481 -10.02487877 24.14573658 -12.65478516 22.26069641 C-15.73870385 17.84041295 -15.27430035 12.41567469 -14.65478516 7.26069641 C-11.33700249 1.23953528 -6.56900746 0.01380195 0 0 Z " fill="#F2CB8A" transform="translate(641.65478515625,283.7393035888672)"/>
<path d="M0 0 C1.31626373 -0.01051392 2.63252747 -0.02102783 3.98867798 -0.03186035 C7.58400039 -0.05911381 11.17828487 -0.04865126 14.77362442 -0.02958584 C18.54466702 -0.01434317 22.31562365 -0.02849748 26.08666992 -0.03790283 C32.41829301 -0.04880381 38.74949552 -0.03447283 45.08105469 -0.00585938 C52.3903394 0.02679216 59.69861982 0.01621405 67.00788021 -0.01681781 C73.29521469 -0.04408884 79.58224769 -0.0478671 85.86962223 -0.03218579 C89.61965955 -0.02285493 93.36922556 -0.02151913 97.11923218 -0.04140472 C101.30144242 -0.06203505 105.4819349 -0.03340557 109.6640625 0 C110.89959869 -0.01214539 112.13513489 -0.02429077 113.40811157 -0.0368042 C119.94828373 0.05993454 123.97109969 0.53397268 128.6660614 5.29584885 C131.20154662 8.51534237 131.27713701 11.39454495 131.2578125 15.38183594 C130.52463728 19.50510577 127.91729323 22.09075054 124.83203125 24.77636719 C122.24793779 26.06841392 120.37035073 25.91694497 117.47554016 25.93699646 C116.338582 25.94704208 115.20162384 25.95708771 114.0302124 25.96743774 C112.77669983 25.97326874 111.52318726 25.97909973 110.23168945 25.98510742 C108.25838905 25.9997831 108.25838905 25.9997831 106.245224 26.01475525 C101.87445021 26.04616099 97.50365729 26.06641209 93.1328125 26.08496094 C92.38909637 26.08825826 91.64538024 26.09155558 90.87912726 26.09495282 C83.86405544 26.12573907 76.84897933 26.15244555 69.83385944 26.1693716 C60.86326846 26.19126964 51.89327671 26.23321695 42.92292529 26.30280918 C36.61455089 26.35008544 30.30633793 26.3743101 23.99779195 26.38156849 C20.2307908 26.38652023 16.46446475 26.40155311 12.69765663 26.44131279 C9.15073533 26.47825697 5.60487241 26.48656457 2.05779457 26.47330666 C0.14225386 26.47338606 -1.77321414 26.50318808 -3.68850708 26.53399658 C-13.11377382 26.45462565 -13.11377382 26.45462565 -17.4334259 22.85780334 C-19.79061603 20.46046199 -21.11277299 18.83198604 -21.29296875 15.38574219 C-21.25171875 14.44214844 -21.21046875 13.49855469 -21.16796875 12.52636719 C-21.14734375 11.59308594 -21.12671875 10.65980469 -21.10546875 9.69824219 C-17.93422006 -0.18548291 -8.93027147 -0.08778504 0 0 Z " fill="#F6CD85" transform="translate(648.16796875,448.2236328125)"/>
<path d="M0 0 C1.12854401 -0.0071553 2.25708801 -0.01431061 3.41983032 -0.02168274 C4.66399216 -0.02437164 5.90815399 -0.02706055 7.1900177 -0.02983093 C8.49579773 -0.03640213 9.80157776 -0.04297333 11.14692688 -0.04974365 C15.48525257 -0.07079651 19.82357865 -0.08114905 24.16194153 -0.09111023 C25.65570405 -0.09515771 27.14946639 -0.09927463 28.64322853 -0.10346031 C35.66288895 -0.12251685 42.68253883 -0.13674535 49.70222014 -0.14507228 C57.80151613 -0.1548386 65.90053837 -0.18114011 73.99973792 -0.22157317 C80.26140929 -0.25175817 86.52300233 -0.26654352 92.78474504 -0.26985329 C96.52363461 -0.27220165 100.2622319 -0.28113315 104.00104332 -0.30631447 C108.17618832 -0.33397913 112.35072431 -0.3297568 116.5259552 -0.32279968 C117.75999588 -0.33560974 118.99403656 -0.3484198 120.26547241 -0.36161804 C126.94073746 -0.3210526 131.31982222 0.01872665 136.68147278 4.14717102 C139.37395677 8.18589701 139.35352722 11.40230471 138.68147278 16.14717102 C136.67646398 19.94977392 135.25461016 21.76507944 131.68147278 24.14717102 C129.17389202 24.40723324 129.17389202 24.40723324 126.12207031 24.42132568 C124.38716087 24.43628838 124.38716087 24.43628838 122.61720276 24.45155334 C120.71191803 24.45255035 120.71191803 24.45255035 118.7681427 24.4535675 C117.41784201 24.46118851 116.06754567 24.4696159 114.71725464 24.47879028 C111.04771661 24.5007502 107.37826193 24.50953634 103.70866561 24.51461673 C101.41555209 24.51825904 99.12246043 24.52449848 96.82935524 24.53161812 C88.82782151 24.55611937 80.82635265 24.56916563 72.82478333 24.57270813 C65.36917217 24.57634229 57.91397296 24.60622701 50.45848769 24.64811271 C44.0558243 24.68282095 37.65329738 24.69825667 31.25054055 24.69895416 C27.42725304 24.69974692 23.60438492 24.70848363 19.78119469 24.73695183 C16.18343747 24.76314167 12.58644701 24.76533351 8.98863792 24.74929619 C7.04315245 24.74661905 5.09768186 24.76866012 3.15232849 24.79148865 C-6.38718837 24.7115443 -6.38718837 24.7115443 -10.08737183 21.73471069 C-13.74546624 17.49230586 -13.76588727 14.34240901 -13.74430847 8.85420227 C-13.27013931 5.83953045 -12.76029304 4.93308006 -10.44352722 3.02217102 C-6.43143243 0.61491415 -4.6360306 0.02012184 0 0 Z " fill="#F4CB8A" transform="translate(640.3185272216797,366.8528289794922)"/>
<path d="M0 0 C3.78580423 2.03850997 7.05061257 4.10122513 9 8 C9.56259203 13.81345101 8.99637926 16.87170665 6 22 C3.58203125 24.74609375 3.58203125 24.74609375 0.8125 27.4375 C-0.08855469 28.32308594 -0.98960937 29.20867187 -1.91796875 30.12109375 C-4.84176705 32.89726961 -7.88424315 35.52892401 -10.92749023 38.17260742 C-14.33937478 41.18096598 -17.63390878 44.31130445 -20.9375 47.4375 C-38.96890971 64.41341255 -38.96890971 64.41341255 -46.703125 64.265625 C-53.14155097 63.52104513 -57.41167341 57.70379999 -61.69140625 53.30859375 C-63.82375358 51.17624642 -66.01704733 49.20348579 -68.3125 47.25 C-73.45522169 42.76292411 -76.75537435 39.38253223 -77.30859375 32.35546875 C-76.74156452 28.02738487 -74.0257168 25.00273667 -71 22 C-67.33161396 20.16580698 -63.9004274 20.0879883 -60 21 C-54.91906361 24.25581056 -50.35929149 27.96106276 -47 33 C-43.57231339 32.41236963 -41.87409603 31.2684111 -39.390625 28.8671875 C-38.71773437 28.22523438 -38.04484375 27.58328125 -37.3515625 26.921875 C-36.65804687 26.24640625 -35.96453125 25.5709375 -35.25 24.875 C-33.88150877 23.55854266 -32.51171823 22.24343463 -31.140625 20.9296875 C-30.45887207 20.27597168 -29.77711914 19.62225586 -29.07470703 18.94873047 C-26.38679277 16.42402682 -23.6177009 14.00287872 -20.83007812 11.58935547 C-17.53341401 8.72632407 -14.32542184 5.76470416 -11.1015625 2.8203125 C-7.40733885 -0.37951691 -4.85760611 -0.40480051 0 0 Z " fill="#F4CE83" transform="translate(602,429)"/>
<path d="M0 0 C3.15064811 1.66838117 5.26697273 4.00041736 7.375 6.875 C8.56793614 10.93098286 8.6357059 14.54161588 6.9375 18.4375 C1.99925679 24.96872489 -3.223449 30.16998623 -9.7109375 35.1875 C-12.34928742 37.27656888 -14.65499462 39.58985558 -17 42 C-19 43.66666667 -21 45.33333333 -23 47 C-25.32618795 49.26497247 -27.59381264 51.57746188 -29.84375 53.91796875 C-39.84152201 64.16568506 -39.84152201 64.16568506 -46.3125 65.875 C-52.31306937 64.45113608 -55.68571021 60.23097937 -60 56 C-61.13651819 54.97444267 -62.27868926 53.95512287 -63.42578125 52.94140625 C-64.00827637 52.42223633 -64.59077148 51.90306641 -65.19091797 51.36816406 C-66.33011862 50.35348884 -67.47349913 49.34348134 -68.62158203 48.33886719 C-72.57518846 44.75481331 -75.6594662 41.19250434 -76.25 35.65625 C-75.58501667 29.92076882 -74.1493352 27.0481319 -70 23 C-66.44479344 21.22239672 -62.86194055 21.23130164 -59 22 C-55.3016724 24.37840723 -52.31120865 27.40781807 -49.5234375 30.79296875 C-48.07453247 32.20937535 -48.07453247 32.20937535 -46.09375 31.9296875 C-43.39339831 30.73065074 -41.65807575 29.14639762 -39.5 27.125 C-38.18515625 25.90683594 -38.18515625 25.90683594 -36.84375 24.6640625 C-35.9053125 23.78492188 -34.966875 22.90578125 -34 22 C-32.00438883 20.16186743 -30.00183828 18.33134587 -28 16.5 C-26.99082384 15.57428587 -25.98170896 14.64850494 -24.97265625 13.72265625 C-22.13364171 11.12092141 -19.29009622 8.52435218 -16.4375 5.9375 C-15.65246094 5.22464844 -14.86742187 4.51179688 -14.05859375 3.77734375 C-9.41775163 -0.22945543 -5.97467637 -1.00937365 0 0 Z " fill="#F5CB8A" transform="translate(602,349)"/>
<path d="M0 0 C3.01111389 1.83285193 4.58109177 3.29547252 6.375 6.3125 C7.46140931 10.98406005 6.80245467 14.58461513 4.4453125 18.7421875 C1.5318941 22.93863305 -2.2525057 26.25085014 -6 29.6875 C-6.75748535 30.39084473 -7.5149707 31.09418945 -8.29541016 31.81884766 C-10.5245064 33.88558754 -12.7611379 35.94384964 -15 38 C-16.1329642 39.04540853 -17.26579343 40.09096338 -18.3984375 41.13671875 C-20.33016142 42.91675281 -22.26854503 44.68854444 -24.2109375 46.45703125 C-26.16313653 48.23697742 -28.10539898 50.02444323 -30.0390625 51.82421875 C-30.53615723 52.28393066 -31.03325195 52.74364258 -31.54541016 53.21728516 C-32.90756667 54.47701701 -34.26640607 55.74033303 -35.625 57.00390625 C-39.14048498 59.95853261 -40.68843736 61.01673688 -45.3671875 60.95703125 C-49.70269855 59.81488049 -52.06255052 57.79056937 -55.125 54.6875 C-56.24798104 53.59561639 -57.37170204 52.50449339 -58.49609375 51.4140625 C-59.06827637 50.85106445 -59.64045898 50.28806641 -60.22998047 49.70800781 C-62.00335902 47.99675866 -63.81828702 46.34804547 -65.66015625 44.7109375 C-66.25103027 44.18282471 -66.8419043 43.65471191 -67.45068359 43.1105957 C-68.58305846 42.10126354 -69.71991385 41.09692901 -70.86181641 40.09838867 C-74.64525784 36.67762103 -76.80258819 33.91055881 -77.15234375 28.75390625 C-76.78001798 24.95618337 -76.23431588 21.6743411 -74.125 18.4375 C-70.28419716 15.44167379 -67.95912841 14.73264422 -63.125 14.9296875 C-56.80727922 17.09350687 -52.59218918 22.71792371 -48.359375 27.69311523 C-46.91821344 29.26588548 -46.91821344 29.26588548 -44 30 C-43.21496094 29.27554687 -42.42992187 28.55109375 -41.62109375 27.8046875 C-36.62441315 23.20350782 -31.62488445 18.63209671 -26.43359375 14.25 C-25.11258605 13.09816768 -23.8643101 11.8643101 -22.625 10.625 C-20.26131945 8.26131945 -17.85121078 5.99456526 -15.375 3.75 C-14.61960937 3.06421875 -13.86421875 2.3784375 -13.0859375 1.671875 C-8.96129703 -1.63401661 -4.90180685 -1.23502555 0 0 Z " fill="#F5CB8A" transform="translate(603,270)"/>
<path d="M0 0 C70.62 0 141.24 0 214 0 C214 66.99 214 133.98 214 203 C213.67 203 213.34 203 213 203 C212.9845388 201.42598671 212.9845388 201.42598671 212.96876526 199.82017517 C212.87089667 189.91833452 212.76815025 180.01655482 212.66066074 170.1148138 C212.60555882 165.02456189 212.55215962 159.93430411 212.50268555 154.84399414 C212.45485367 149.92915087 212.40250491 145.01437435 212.34705925 140.09961128 C212.32672072 138.22701244 212.30799405 136.35439535 212.29092598 134.48176384 C212.26669277 131.85357977 212.23666544 129.2255197 212.20532227 126.59741211 C212.1995668 125.82776627 212.19381134 125.05812042 212.18788147 124.26515198 C212.12695059 119.75344627 211.73234242 115.45367046 211 111 C210.01 111 209.02 111 208 111 C208 106.05 208 101.1 208 96 C209.32 96.66 210.64 97.32 212 98 C212.33 65.99 212.66 33.98 213 1 C142.71 1 72.42 1 0 1 C0 0.67 0 0.34 0 0 Z " fill="#E8F1AC" transform="translate(96,435)"/>
<path d="M0 0 C2.70567626 1.82339052 4.53728718 3.07457436 6 6 C6.51816286 10.79937735 6.71207367 14.73409126 4.3125 19 C0.66932217 22.1508565 -1.59344104 23.0255738 -6.4375 22.9375 C-10.89677764 21.76400588 -12.95688475 20.477846 -16 17 C-17.60615847 12.36093592 -17.4980852 9.07586403 -15.4375 4.625 C-10.68591432 -0.49209227 -6.79859157 -1.85416134 0 0 Z " fill="#79422C" transform="translate(284,304)"/>
<path d="M0 0 C2.64233769 2.19257809 4.46669809 3.93339618 6 7 C6.37712577 11.99691647 6.09290612 14.99067725 3 19 C-1.25864456 21.83909637 -5.00316775 21.51085825 -10 21 C-13.36104122 19.66958785 -14.54036745 18.80982878 -16.3125 15.6875 C-17.1288244 12.49641372 -17.46882832 10.28179825 -17 7 C-12.30794641 0.22258925 -8.25232546 -2.58703854 0 0 Z " fill="#79422D" transform="translate(235,339)"/>
<path d="M0 0 C2.97239241 1.78476241 5.42604027 3.85208055 7 7 C7.55512815 11.63213493 7.6364242 14.98172127 5.125 19 C1.42853343 22.47902736 -1.59608228 22.38781166 -6.515625 22.359375 C-9 22 -9 22 -12.0625 19.625 C-15.10803998 15.49878454 -15.43068946 13.16827351 -15 8 C-13.3718054 4.91806022 -11.96990938 2.73579333 -9.1875 0.625 C-5.89024117 -0.31707395 -3.4187401 -0.41260656 0 0 Z " fill="#7A422D" transform="translate(333,338)"/>
<path d="M0 0 C0.33 0 0.66 0 1 0 C1 50.16 1 100.32 1 152 C5.95 152 10.9 152 16 152 C15.505 150.02 15.505 150.02 15 148 C14.78413235 144.89839909 14.81488193 141.79591875 14.8125 138.6875 C14.80025391 137.85798828 14.78800781 137.02847656 14.77539062 136.17382812 C14.76326601 131.05320079 15.3440876 126.84992526 17 122 C17.33 122 17.66 122 18 122 C17.9278125 122.55945313 17.855625 123.11890625 17.78125 123.6953125 C16.5976865 133.91998606 16.72323819 143.78590554 18 154 C11.73 154 5.46 154 -1 154 C-1.02312428 134.21620472 -1.04098196 114.43241325 -1.05181217 94.64860725 C-1.05697393 85.46316188 -1.06401434 76.27772505 -1.07543945 67.09228516 C-1.08538996 59.08858544 -1.09185431 51.08489191 -1.09408849 43.08118618 C-1.09539498 38.84119646 -1.0984769 34.60122444 -1.10573006 30.36124039 C-1.11249604 26.37389856 -1.11461577 22.38658179 -1.11310768 18.39923477 C-1.11338375 16.93264632 -1.11538546 15.46605707 -1.11920547 13.99947357 C-1.12415164 12.00332743 -1.12239545 10.00716797 -1.12025452 8.01101685 C-1.12117631 6.89196016 -1.1220981 5.77290348 -1.12304783 4.61993599 C-1 2 -1 2 0 0 Z " fill="#E6E297" transform="translate(96,257)"/>
<path d="M0 0 C1.31626373 -0.01051392 2.63252747 -0.02102783 3.98867798 -0.03186035 C7.58400039 -0.05911381 11.17828487 -0.04865126 14.77362442 -0.02958584 C18.54466702 -0.01434317 22.31562365 -0.02849748 26.08666992 -0.03790283 C32.41829301 -0.04880381 38.74949552 -0.03447283 45.08105469 -0.00585938 C52.3903394 0.02679216 59.69861982 0.01621405 67.00788021 -0.01681781 C73.29521469 -0.04408884 79.58224769 -0.0478671 85.86962223 -0.03218579 C89.61965955 -0.02285493 93.36922556 -0.02151913 97.11923218 -0.04140472 C101.30144242 -0.06203505 105.4819349 -0.03340557 109.6640625 0 C110.89959869 -0.01214539 112.13513489 -0.02429077 113.40811157 -0.0368042 C119.94828373 0.05993454 123.97109969 0.53397268 128.6660614 5.29584885 C131.2355831 8.55856101 131.21222192 11.47976075 131.19921875 15.51074219 C130.62456497 19.05647828 128.57844272 20.6478983 125.83203125 22.77636719 C126.14140625 22.26074219 126.45078125 21.74511719 126.76953125 21.21386719 C128.555508 17.11662641 129.26830516 13.37603817 128.08203125 9.02636719 C126.80473513 6.72723417 125.89582709 5.39419021 123.83203125 3.77636719 C121.27487153 3.32097639 121.27487153 3.32097639 118.34182739 3.38868713 C116.62999268 3.37383018 116.62999268 3.37383018 114.88357544 3.3586731 C113.63051605 3.36317474 112.37745667 3.36767639 111.08642578 3.37231445 C109.76753357 3.3654512 108.44864136 3.35858795 107.08978271 3.35151672 C103.46983515 3.33354808 99.8501295 3.33476083 96.2301507 3.34045911 C93.2082945 3.34354636 90.18648509 3.33746353 87.16463554 3.33142036 C80.03468502 3.31736391 72.90485428 3.31894502 65.77490234 3.33032227 C58.42042354 3.34179852 51.0663096 3.32773892 43.7118789 3.30092579 C37.39754134 3.27876697 31.0833183 3.27213198 24.76894462 3.2780022 C20.99775134 3.28137334 17.22679183 3.27894692 13.45563126 3.26175117 C9.90799567 3.24628151 6.36090007 3.25023708 2.81328583 3.26905632 C0.89269675 3.27449875 -1.02791656 3.26022726 -2.94845581 3.24536133 C-4.66875 3.26011253 -4.66875 3.26011253 -6.42379761 3.27516174 C-7.91540563 3.27547567 -7.91540563 3.27547567 -9.43714714 3.27579594 C-12.8912388 3.90894567 -14.55203959 5.50366738 -17.16796875 7.77636719 C-17.82796875 7.77636719 -18.48796875 7.77636719 -19.16796875 7.77636719 C-19.49796875 9.09636719 -19.82796875 10.41636719 -20.16796875 11.77636719 C-20.60546875 9.65136719 -20.60546875 9.65136719 -20.16796875 6.77636719 C-15.05460329 -0.43073369 -8.13342106 -0.07995196 0 0 Z " fill="#F2DF83" transform="translate(648.16796875,448.2236328125)"/>
<path d="M0 0 C84.81 0 169.62 0 257 0 C252.49999163 3.37500628 252.49999163 3.37500628 248.64866734 3.35631943 C247.77990453 3.35942588 246.91114173 3.36253232 246.01605278 3.36573291 C245.06615957 3.35378556 244.11626636 3.3418382 243.1375885 3.32952881 C242.12497765 3.3287141 241.11236679 3.32789938 240.06907076 3.32705998 C236.66570945 3.32061651 233.26286713 3.29256323 229.85961914 3.26464844 C227.42382747 3.25557975 224.98803061 3.24782424 222.55223083 3.24128723 C216.6166877 3.22188903 210.68131931 3.18851637 204.74588639 3.14880887 C197.83456461 3.10321378 190.92320271 3.07383301 184.01179319 3.04523364 C171.67974105 2.9936855 159.3478056 2.92795008 147.01586914 2.85400391 C135.04878057 2.78226273 123.08169251 2.71958046 111.11450195 2.66748047 C110.37760496 2.66427071 109.64070797 2.66106094 108.88148076 2.65775391 C107.39699055 2.65129424 105.91250035 2.64483542 104.42801013 2.63837744 C103.69572439 2.63519027 102.96343866 2.63200309 102.20896244 2.62871933 C101.47852933 2.62554352 100.74809621 2.62236771 99.99552876 2.61909567 C88.59306213 2.56919697 77.1906319 2.51176141 65.78820669 2.45324342 C61.65527674 2.43209257 57.52234342 2.41189748 53.38940556 2.39235893 C46.21954301 2.35837665 39.04972691 2.31920232 31.87992287 2.27438927 C29.49705685 2.26022494 27.11418037 2.24771289 24.73129654 2.23695564 C21.48394967 2.22198082 18.23669668 2.20099432 14.98939514 2.17840576 C14.04173265 2.1753813 13.09407016 2.17235683 12.11769062 2.16924071 C7.95493407 2.13424954 4.05760222 2.05752344 0 1 C0 0.67 0 0.34 0 0 Z " fill="#880206" transform="translate(149,774)"/>
<path d="M0 0 C2.70008699 4.05013049 2.52573504 7.25114746 2 12 C0.55514531 15.4315299 -0.91889456 15.96115429 -4.29943848 17.58027649 C-10.15208862 19.69220016 -16.05848243 19.39476361 -22.20898438 19.34057617 C-23.51713104 19.34101425 -24.82527771 19.34145233 -26.17306519 19.34190369 C-29.73871912 19.34276008 -33.30406677 19.32519255 -36.86964989 19.30418181 C-40.60387979 19.28535525 -44.33811766 19.28365988 -48.0723877 19.28010559 C-55.13413245 19.27080261 -62.19573692 19.24621267 -69.25742006 19.21605712 C-77.30096354 19.18245852 -85.34451392 19.16601341 -93.38811016 19.15097082 C-109.92548873 19.11966141 -126.46272643 19.06693516 -143 19 C-143 18.67 -143 18.34 -143 18 C-142.32100616 17.99853344 -141.64201231 17.99706688 -140.94244289 17.99555588 C-124.40800721 17.9584767 -107.87380962 17.89944743 -91.33954525 17.81609726 C-83.34362903 17.77631669 -75.34781109 17.74391925 -67.35180664 17.72900391 C-60.38109254 17.71598224 -53.41059476 17.68900462 -46.4400025 17.64538693 C-42.75032727 17.62278343 -39.06091875 17.60708863 -35.37116814 17.60811615 C-31.24836078 17.60900244 -27.12633893 17.57872647 -23.00366211 17.54589844 C-21.78518082 17.5509288 -20.56669952 17.55595917 -19.31129456 17.56114197 C-12.67284944 17.47931419 -8.36685226 17.03857544 -3 13 C-1.00509147 10.2138149 -0.67299785 7.62730895 -0.375 4.25 C-0.30023437 3.45078125 -0.22546875 2.6515625 -0.1484375 1.828125 C-0.07496094 0.92320312 -0.07496094 0.92320312 0 0 Z " fill="#0B97A1" transform="translate(779,374)"/>
<path d="M0 0 C1.98 0.99 1.98 0.99 4 2 C4.33 1.34 4.66 0.68 5 0 C5 7.26 5 14.52 5 22 C4.67 22 4.34 22 4 22 C3.67 19.69 3.34 17.38 3 15 C2.01 15 1.02 15 0 15 C0 10.05 0 5.1 0 0 Z " fill="#F4DC97" transform="translate(304,531)"/>
<path d="M0 0 C11.9267692 1.44621004 21.49667722 8.99021859 29 18 C30.8359375 20.6171875 30.8359375 20.6171875 32 23 C31.67 23.99 31.34 24.98 31 26 C30.525625 25.21625 30.05125 24.4325 29.5625 23.625 C22.84236944 13.83346955 16.07213783 8.43116429 5.37890625 3.59375 C2 2 2 2 0 0 Z " fill="#622B1F" transform="translate(375,268)"/>
<path d="M0 0 C-0.33 0.66 -0.66 1.32 -1 2 C-5.17828639 3.39276213 -9.12424034 3.18424906 -13.5 3.1875 C-14.80130859 3.20586914 -14.80130859 3.20586914 -16.12890625 3.22460938 C-16.96292969 3.22654297 -17.79695313 3.22847656 -18.65625 3.23046875 C-19.41744141 3.23457764 -20.17863281 3.23868652 -20.96289062 3.24291992 C-23 3 -23 3 -26 1 C-20.96608036 0.26779351 -16.19158954 -0.0437057 -11.109375 0.03515625 C-8.77664747 0.04830155 -8.77664747 0.04830155 -5.625 -0.5625 C-3 -1 -3 -1 0 0 Z " fill="#EED591" transform="translate(371,676)"/>
<path d="M0 0 C3.09107447 2.41490193 3.93483001 3.54381009 4.5 7.5 C3.93483001 11.45618991 3.09107447 12.58509807 0 15 C0.2475 14.4225 0.495 13.845 0.75 13.25 C0.8325 12.5075 0.915 11.765 1 11 C0.34 10.360625 -0.32 9.72125 -1 9.0625 C-1.66 8.381875 -2.32 7.70125 -3 7 C-2.83849795 3.60845705 -2.41703243 2.41703243 0 0 Z " fill="#854C33" transform="translate(335,342)"/>
<path d="M0 0 C-1.1196986 1.00593243 -2.2459412 2.0045849 -3.375 3 C-4.00148438 3.556875 -4.62796875 4.11375 -5.2734375 4.6875 C-7 6 -7 6 -9 6 C-9.14975239 13.05651252 -9.14975239 13.05651252 -8 20 C-11.34759561 17.10848009 -11.8928222 14.73237286 -12.2734375 10.42578125 C-11.77930998 6.04216421 -9.05408242 3.03088686 -6 0 C-3.50907189 -1.24546405 -2.58919267 -0.7767578 0 0 Z " fill="#E1D681" transform="translate(537,451)"/>
<path d="M0 0 C3.28417619 3.07891517 6.0575708 6.31043677 8.8125 9.875 C12.45191655 14.50572429 16.41612366 18.31826953 21 22 C16.78393592 22 15.38539095 20.17036779 12.33984375 17.4140625 C9.50676071 14.49111539 6.98834685 11.40533543 4.5 8.1875 C4.05454834 7.61233643 3.60909668 7.03717285 3.15014648 6.44458008 C0 2.26190275 0 2.26190275 0 0 Z " fill="#692F20" transform="translate(84,756)"/>
<path d="M0 0 C5.30630942 4.69987406 9.77500008 10.87392521 11 18 C11.06743348 20.08234592 11.08514472 22.16668557 11.0625 24.25 C11.05347656 25.32765625 11.04445313 26.4053125 11.03515625 27.515625 C11.02355469 28.33546875 11.01195312 29.1553125 11 30 C10.67 30 10.34 30 10 30 C9.91363281 29.02160156 9.82726562 28.04320312 9.73828125 27.03515625 C8.581439 16.24149969 6.30763146 8.35818787 -2 1 C-1.34 0.67 -0.68 0.34 0 0 Z " fill="#55221A" transform="translate(404,329)"/>
<path d="M0 0 C0 4.53350166 -2.58962349 6.45559813 -5.5625 9.69921875 C-9.24226346 13.17258522 -13.33474821 16.0055615 -18 18 C-18.66 17.67 -19.32 17.34 -20 17 C-19.14277344 16.35933594 -18.28554688 15.71867188 -17.40234375 15.05859375 C-11.18362953 10.36889283 -5.33616784 5.70845862 0 0 Z " fill="#56CFB3" transform="translate(455,687)"/>
<path d="M0 0 C2.42447165 1.742589 3.82692422 3.10799408 4.40625 6.09375 C4.57120639 10.21765978 4.35220159 12.43647745 2.125 16 C-1.82677817 19.71932063 -4.7686532 19.08437656 -10 19 C-10 18.67 -10 18.34 -10 18 C-8.35 18 -6.7 18 -5 18 C-4.34 16.68 -3.68 15.36 -3 14 C-2.01 14.33 -1.02 14.66 0 15 C2.47717167 11.28424249 2.30345742 9.40013262 2 5 C1.1025173 2.16621868 1.1025173 2.16621868 0 0 Z " fill="#55231A" transform="translate(336,341)"/>
<path d="M0 0 C2.70333334 4.05500001 2.517564 7.24703723 2 12 C1.0625 14.375 1.0625 14.375 -1 16 C-3.94910044 17.20264734 -6.93192966 18.15097425 -10 19 C-10 18.34 -10 17.68 -10 17 C-7.36328125 15.6328125 -7.36328125 15.6328125 -4.7265625 14.265625 C-1.93353527 12.21824757 -1.17379826 9.99032213 -0.5859375 6.640625 C-0.51632812 5.85171875 -0.44671875 5.0628125 -0.375 4.25 C-0.30023437 3.45078125 -0.22546875 2.6515625 -0.1484375 1.828125 C-0.09945312 1.22484375 -0.05046875 0.6215625 0 0 Z " fill="#2F9C9A" transform="translate(779,374)"/>
<path d="M0 0 C4.09325734 0.7534079 8.05899571 1.80281697 12.0625 2.9375 C13.27035156 3.27652344 14.47820312 3.61554687 15.72265625 3.96484375 C18.34726731 4.79383294 20.60610522 5.66873183 23 7 C15.25 8.125 15.25 8.125 13 7 C13 6.34 13 5.68 13 5 C11.96875 4.896875 10.9375 4.79375 9.875 4.6875 C6.04916055 4.00872203 3.36629975 2.88841205 0 1 C0 0.67 0 0.34 0 0 Z " fill="#541F17" transform="translate(138,687)"/>
<path d="M0 0 C7.75671936 2.65944664 14.33740159 9.03670976 18.20703125 16.25 C18.59955078 17.11625 18.59955078 17.11625 19 18 C13.33737812 13.30122865 8.15585212 8.24577978 3 3 C2.00110558 1.99889564 1.00158353 0.99841396 0 0 Z " fill="#ECA449" transform="translate(219,562)"/>
<path d="M0 0 C6.6771049 0.76893774 11.05361234 3.54486316 16 8 C17.80699322 10.64595436 18.83648806 12.98544633 20 16 C16.22481455 14.74160485 15.80240862 13.44096192 14 10 C13.67 9.01 13.34 8.02 13 7 C10.81862203 5.97549761 10.81862203 5.97549761 8 5 C5.31110527 3.71032642 2.65531129 2.35730552 0 1 C0 0.67 0 0.34 0 0 Z " fill="#EAA147" transform="translate(220,498)"/>
<path d="M0 0 C1.69141656 0.08963062 3.37959602 0.24577676 5.0625 0.4375 C6.44115234 0.59025391 6.44115234 0.59025391 7.84765625 0.74609375 C8.55792969 0.82988281 9.26820313 0.91367188 10 1 C10 1.99 10 2.98 10 4 C7.35261084 5.4606285 6.10551666 6 3 6 C3 5.01 3 4.02 3 3 C1.68 2.34 0.36 1.68 -1 1 C-0.67 0.67 -0.34 0.34 0 0 Z " fill="#85523D" transform="translate(408,177)"/>
<path d="M0 0 C0.33 0 0.66 0 1 0 C1.3690205 12.66970387 1.3690205 12.66970387 -1 18 C-3 16 -3 16 -3.01171875 13.72265625 C-2.90472656 12.84480469 -2.79773438 11.96695312 -2.6875 11.0625 C-2.58824219 10.18722656 -2.48898437 9.31195313 -2.38671875 8.41015625 C-1.91584732 5.47553331 -0.93900786 2.81702359 0 0 Z " fill="#875137" transform="translate(415,354)"/>
<path d="M0 0 C-2.20151792 1.965641 -3.49725434 2.94943764 -6.47363281 3.2487793 C-7.37436523 3.19117432 -8.27509766 3.13356934 -9.203125 3.07421875 C-10.67265625 2.99204102 -10.67265625 2.99204102 -12.171875 2.90820312 C-13.18765625 2.83537109 -14.2034375 2.76253906 -15.25 2.6875 C-16.28125 2.62626953 -17.3125 2.56503906 -18.375 2.50195312 C-20.91791028 2.3489076 -23.45895864 2.18109518 -26 2 C-26 1.67 -26 1.34 -26 1 C-22.9792807 0.83100871 -19.95845177 0.66473871 -16.9375 0.5 C-16.08994141 0.45230469 -15.24238281 0.40460937 -14.36914062 0.35546875 C-9.57055312 0.09608564 -4.80550212 -0.05216285 0 0 Z " fill="#86100C" transform="translate(406,774)"/>
<path d="M0 0 C1.875 0.125 1.875 0.125 4 1 C6.0580122 5.32182562 6.36473985 9.25838192 6 14 C5.34 14.66 4.68 15.32 4 16 C3.96261719 15.32453125 3.92523438 14.6490625 3.88671875 13.953125 C3.82097656 13.06109375 3.75523437 12.1690625 3.6875 11.25 C3.62949219 10.36828125 3.57148438 9.4865625 3.51171875 8.578125 C2.93309954 5.66294426 1.84740512 4.27830122 0 2 C0 1.34 0 0.68 0 0 Z " fill="#E3E9E0" transform="translate(336,339)"/>
<path d="M0 0 C0.66 0.33 1.32 0.66 2 1 C0.73965413 2.50882261 -0.53363649 4.00684044 -1.8125 5.5 C-2.52019531 6.3353125 -3.22789063 7.170625 -3.95703125 8.03125 C-6 10 -6 10 -9 10 C-7.61811547 6.78956118 -6.07578097 4.95063635 -3.375 2.75 C-2.74335937 2.22921875 -2.11171875 1.7084375 -1.4609375 1.171875 C-0.73777344 0.59179688 -0.73777344 0.59179688 0 0 Z " fill="#743A26" transform="translate(105,197)"/>
<path d="M0 0 C0 0.33 0 0.66 0 1 C-0.969375 1.28875 -1.93875 1.5775 -2.9375 1.875 C-6.10664203 2.64214682 -6.10664203 2.64214682 -7 5 C-10 4 -10 4 -12 3 C-13.32860925 2.64830932 -14.66158328 2.31229724 -16 2 C-10.60539047 -0.27141454 -5.73842251 -0.20413361 0 0 Z " fill="#874E35" transform="translate(279,234)"/>
<path d="M0 0 C0.33 0 0.66 0 1 0 C0.91320858 2.46008778 0.80639045 4.91643517 0.6875 7.375 C0.66494141 8.07367187 0.64238281 8.77234375 0.61914062 9.4921875 C0.51171875 11.5234375 0.51171875 11.5234375 0 15 C-0.99 15.66 -1.98 16.32 -3 17 C-3.99 16.67 -4.98 16.34 -6 16 C-5.67 15.34 -5.34 14.68 -5 14 C-4.01 14 -3.02 14 -2 14 C-1.34 9.38 -0.68 4.76 0 0 Z " fill="#EDE69C" transform="translate(127,526)"/>
<path d="M0 0 C0.66 0.33 1.32 0.66 2 1 C1.06027344 1.92232422 1.06027344 1.92232422 0.1015625 2.86328125 C-0.71570313 3.67152344 -1.53296875 4.47976563 -2.375 5.3125 C-3.18710937 6.11300781 -3.99921875 6.91351563 -4.8359375 7.73828125 C-7.12604842 10.00009937 -7.12604842 10.00009937 -9 13 C-9.99 12.67 -10.98 12.34 -12 12 C-8.04 8.04 -4.08 4.08 0 0 Z " fill="#33A09C" transform="translate(582,474)"/>
<path d="M0 0 C0.721875 0.103125 1.44375 0.20625 2.1875 0.3125 C1.1975 0.8075 1.1975 0.8075 0.1875 1.3125 C-0.94600534 3.32919827 -0.94600534 3.32919827 -1.8125 5.3125 C-3.7925 5.3125 -5.7725 5.3125 -7.8125 5.3125 C-3.50480769 0.38942308 -3.50480769 0.38942308 0 0 Z " fill="#753E2B" transform="translate(115.8125,190.6875)"/>
<path d="M0 0 C-0.83144531 0.38091797 -0.83144531 0.38091797 -1.6796875 0.76953125 C-2.40414063 1.11371094 -3.12859375 1.45789063 -3.875 1.8125 C-4.59429687 2.14894531 -5.31359375 2.48539063 -6.0546875 2.83203125 C-8.30542806 3.99467097 -8.30542806 3.99467097 -10 7 C-12.625 7.1875 -12.625 7.1875 -15 7 C-13.33784732 5.66104368 -11.67036393 4.32869858 -10 3 C-9.319375 2.443125 -8.63875 1.88625 -7.9375 1.3125 C-5.12036628 -0.5958809 -3.13818779 -1.56909389 0 0 Z " fill="#602A1F" transform="translate(261,237)"/>
<path d="M0 0 C5.32697239 1.45281065 8.36402802 5.08111378 12 9 C11.67 9.66 11.34 10.32 11 11 C9.16365304 9.35742342 7.3308593 7.71117305 5.5 6.0625 C4.97535156 5.59392578 4.45070313 5.12535156 3.91015625 4.64257812 C2.5878256 3.44904592 1.29166061 2.22665821 0 1 C0 0.67 0 0.34 0 0 Z " fill="#E0DB81" transform="translate(533,475)"/>
<path d="M0 0 C0 3 0 3 -1.75 4.82421875 C-2.4925 5.43910156 -3.235 6.05398438 -4 6.6875 C-4.7425 7.31011719 -5.485 7.93273437 -6.25 8.57421875 C-6.8275 9.04472656 -7.405 9.51523437 -8 10 C-8 7 -8 7 -6.25 5.17578125 C-5.5075 4.56089844 -4.765 3.94601562 -4 3.3125 C-3.2575 2.68988281 -2.515 2.06726563 -1.75 1.42578125 C-1.1725 0.95527344 -0.595 0.48476563 0 0 Z " fill="#EADA80" transform="translate(567,454)"/>
<path d="M0 0 C0.33 0.99 0.66 1.98 1 3 C0.195625 3.556875 -0.60875 4.11375 -1.4375 4.6875 C-4.24228216 7.21864487 -4.69381595 8.32579134 -5 12 C-5.33 11.01 -5.66 10.02 -6 9 C-6.99 8.67 -7.98 8.34 -9 8 C-8.01 8 -7.02 8 -6 8 C-5.7525 7.4225 -5.505 6.845 -5.25 6.25 C-3.83316683 3.6997003 -2.12372463 1.98214299 0 0 Z " fill="#5E261C" transform="translate(201,258)"/>
<path d="M0 0 C0 3.99282941 -1.47808076 5.15331592 -4 8.1875 C-4.7425 9.08855469 -5.485 9.98960937 -6.25 10.91796875 C-6.8275 11.60503906 -7.405 12.29210937 -8 13 C-8.33 12.34 -8.66 11.68 -9 11 C-8.06558465 9.72689688 -7.12732889 8.456612 -6.1875 7.1875 C-5.66542969 6.47980469 -5.14335938 5.77210938 -4.60546875 5.04296875 C-3.16871123 3.21468607 -1.68184237 1.60103312 0 0 Z " fill="#6B3120" transform="translate(93,209)"/>
<path d="M0 0 C2.91997367 1.10757622 3.87553962 1.77813585 5.4375 4.5625 C6.79062712 7.25430285 6.79062712 7.25430285 9.6875 7.8125 C10.8321875 7.9053125 10.8321875 7.9053125 12 8 C12 8.33 12 8.66 12 9 C9.375 9.4375 9.375 9.4375 6 9 C3.61001246 6.94913231 1.6932063 4.65389073 0 2 C0 1.34 0 0.68 0 0 Z " fill="#EAE7A3" transform="translate(361,257)"/>
<path d="M0 0 C5.61 0.33 11.22 0.66 17 1 C17 1.33 17 1.66 17 2 C11.06 2.33 5.12 2.66 -1 3 C-0.67 2.01 -0.34 1.02 0 0 Z " fill="#F2E79C" transform="translate(445,408)"/>
<path d="M0 0 C0 0.66 0 1.32 0 2 C-2.75 4.1875 -2.75 4.1875 -6 6 C-8.203125 5.61328125 -8.203125 5.61328125 -10 5 C-8.71186658 4.16121545 -7.41936744 3.32913217 -6.125 2.5 C-5.40570313 2.0359375 -4.68640625 1.571875 -3.9453125 1.09375 C-2 0 -2 0 0 0 Z " fill="#DFE5DB" transform="translate(265,259)"/>
<path d="M0 0 C0.66 0.33 1.32 0.66 2 1 C1.67 2.32 1.34 3.64 1 5 C0.34 5 -0.32 5 -1 5 C-1.33 5.99 -1.66 6.98 -2 8 C-2.66 7.67 -3.32 7.34 -4 7 C-2.92598892 4.08482708 -2.22189824 2.22189824 0 0 Z " fill="#713728" transform="translate(119,545)"/>
<path d="M0 0 C0.33 0.99 0.66 1.98 1 3 C-1.94553377 8.66448802 -1.94553377 8.66448802 -5.75 9.875 C-6.4925 9.91625 -7.235 9.9575 -8 10 C-7.236875 9.278125 -6.47375 8.55625 -5.6875 7.8125 C-3.28866409 5.30209033 -1.64589779 3.03191698 0 0 Z " fill="#713D29" transform="translate(447,641)"/>
<path d="M0 0 C1.53656962 2.4404341 2.02089707 3.70744102 1.8125 6.625 C1 9 1 9 -2 11 C-1.7215625 9.824375 -1.7215625 9.824375 -1.4375 8.625 C-0.74037734 6.02910225 -0.74037734 6.02910225 -2 4 C-1.0625 1.875 -1.0625 1.875 0 0 Z " fill="#7A4330" transform="translate(287,314)"/>
<path d="M0 0 C-2.71182212 2.60334924 -3.89133813 2.99456691 -7.75 3.1875 C-8.8225 3.125625 -9.895 3.06375 -11 3 C-7.63114177 -0.36885823 -4.54278442 -0.10095076 0 0 Z " fill="#783E2A" transform="translate(649,100)"/>
<path d="M0 0 C1.32 1.32 2.64 2.64 4 4 C3.01 4 2.02 4 1 4 C1 6.64 1 9.28 1 12 C0.67 12 0.34 12 0 12 C0 8.04 0 4.08 0 0 Z " fill="#F0E4D8" transform="translate(484,538)"/>
<path d="M0 0 C0.66 0.99 1.32 1.98 2 3 C-0.3125 4.5625 -0.3125 4.5625 -3 6 C-3.99 5.67 -4.98 5.34 -6 5 C-4.02 3.35 -2.04 1.7 0 0 Z " fill="#E2E7D6" transform="translate(157,331)"/>
<path d="M0 0 C0.33 0 0.66 0 1 0 C1 2.64 1 5.28 1 8 C0.01 8.495 0.01 8.495 -1 9 C-1.66 8.34 -2.32 7.68 -3 7 C-2.34 7 -1.68 7 -1 7 C-1.020625 6.030625 -1.04125 5.06125 -1.0625 4.0625 C-1 1 -1 1 0 0 Z " fill="#D7D9CF" transform="translate(168,320)"/>
<path d="M0 0 C0.66 0.99 1.32 1.98 2 3 C-0.475 4.485 -0.475 4.485 -3 6 C-3 3 -3 3 -1.5 1.3125 C-0.7575 0.6628125 -0.7575 0.6628125 0 0 Z " fill="#44A79C" transform="translate(606,290)"/>
<path d="M0 0 C3.11373372 1.49920512 6.12228205 3.08152136 9 5 C9 5.66 9 6.32 9 7 C6.62051228 6.82374165 5.29774151 6.30280227 3.62109375 4.59765625 C2.37884514 3.09350908 1.18623944 1.54870149 0 0 Z " fill="#844F3B" transform="translate(459,205)"/>
<path d="M0 0 C3.82097239 0.53069061 6.06171403 1.49701566 9 4 C7.02 4 5.04 4 3 4 C2.67 3.01 2.34 2.02 2 1 C1.34 0.67 0.68 0.34 0 0 Z " fill="#5B221C" transform="translate(271,496)"/>
<path d="" fill="#000000" transform="translate(0,0)"/>
</svg>
